<svg width="512" height="512" viewBox="0 0 512 512" fill="none" xmlns="http://www.w3.org/2000/svg" role="img" aria-label="Pitch My CV icon">
<g clip-path="url(#clip0_80_32707)">
<mask id="mask0_80_32707" style="mask-type:luminance" maskUnits="userSpaceOnUse" x="42" y="104" width="332" height="102">
<path d="M42 104H276C336 104 374 142 374 206H98L42 104Z" fill="white"/>
</mask>
<g mask="url(#mask0_80_32707)">
<path d="M398 96H18V222H398V96Z" fill="url(#paint0_linear_80_32707)"/>
</g>
<mask id="mask1_80_32707" style="mask-type:luminance" maskUnits="userSpaceOnUse" x="22" y="286" width="312" height="144">
<path d="M42 286H286L334 430H22L42 286Z" fill="white"/>
</mask>
<g mask="url(#mask1_80_32707)">
<path d="M404 278H14V448H404V278Z" fill="url(#paint1_linear_80_32707)"/>
</g>
<path d="M292 206H374C425 206 466 247 466 298C466 347 428 383 382 387C388 375 391 361 391 347C391 315 365 289 333 289H268L292 206Z" fill="url(#paint2_linear_80_32707)"/>
</g>
<defs>
<linearGradient id="paint0_linear_80_32707" x1="18" y1="96" x2="398" y2="96" gradientUnits="userSpaceOnUse">
<stop stop-color="#FF0000"/>
<stop offset="1" stop-color="#E3001A"/>
</linearGradient>
<linearGradient id="paint1_linear_80_32707" x1="14" y1="448" x2="138.541" y2="162.287" gradientUnits="userSpaceOnUse">
<stop stop-color="#0EA5FF"/>
<stop offset="1" stop-color="#B61084"/>
</linearGradient>
<linearGradient id="paint2_linear_80_32707" x1="268" y1="387" x2="448.273" y2="189.795" gradientUnits="userSpaceOnUse">
<stop stop-color="#0EA5FF"/>
<stop offset="1" stop-color="#B61084"/>
</linearGradient>
<clipPath id="clip0_80_32707">
<rect width="512" height="512" fill="white"/>
</clipPath>
</defs>
</svg>
