<svg width="377" height="146" viewBox="0 0 377 146" fill="none" xmlns="http://www.w3.org/2000/svg">
<path opacity="0.5" d="M53.5431 16.786C53.1978 16.786 52.8664 16.73 52.5491 16.618C52.2411 16.506 51.9751 16.338 51.7511 16.114L52.2131 15.372C52.3998 15.5493 52.6004 15.6847 52.8151 15.778C53.0391 15.8807 53.2864 15.932 53.5571 15.932C53.8838 15.932 54.1638 15.8387 54.3971 15.652C54.6398 15.4747 54.8684 15.1573 55.0831 14.7L55.5591 13.622L55.6711 13.468L58.6951 6.65H59.6751L55.9931 14.882C55.7878 15.358 55.5591 15.736 55.3071 16.016C55.0644 16.296 54.7984 16.492 54.5091 16.604C54.2198 16.7253 53.8978 16.786 53.5431 16.786ZM55.5031 14.21L52.1151 6.65H53.1511L56.1471 13.398L55.5031 14.21ZM63.8659 14.07C63.1566 14.07 62.5173 13.9113 61.9479 13.594C61.3879 13.2673 60.9446 12.824 60.6179 12.264C60.2913 11.6947 60.1279 11.046 60.1279 10.318C60.1279 9.58067 60.2913 8.932 60.6179 8.372C60.9446 7.812 61.3879 7.37333 61.9479 7.056C62.5079 6.73867 63.1473 6.58 63.8659 6.58C64.5939 6.58 65.2379 6.73867 65.7979 7.056C66.3673 7.37333 66.8106 7.812 67.1279 8.372C67.4546 8.932 67.6179 9.58067 67.6179 10.318C67.6179 11.046 67.4546 11.6947 67.1279 12.264C66.8106 12.824 66.3673 13.2673 65.7979 13.594C65.2286 13.9113 64.5846 14.07 63.8659 14.07ZM63.8659 13.188C64.3979 13.188 64.8693 13.0713 65.2799 12.838C65.6906 12.5953 66.0126 12.2593 66.2459 11.83C66.4886 11.3913 66.6099 10.8873 66.6099 10.318C66.6099 9.73933 66.4886 9.23533 66.2459 8.806C66.0126 8.37667 65.6906 8.04533 65.2799 7.812C64.8693 7.56933 64.4026 7.448 63.8799 7.448C63.3573 7.448 62.8906 7.56933 62.4799 7.812C62.0693 8.04533 61.7426 8.37667 61.4999 8.806C61.2573 9.23533 61.1359 9.73933 61.1359 10.318C61.1359 10.8873 61.2573 11.3913 61.4999 11.83C61.7426 12.2593 62.0693 12.5953 62.4799 12.838C62.8906 13.0713 63.3526 13.188 63.8659 13.188ZM72.6853 14.07C72.0599 14.07 71.5139 13.9533 71.0473 13.72C70.5806 13.4867 70.2166 13.1367 69.9553 12.67C69.7033 12.2033 69.5773 11.62 69.5773 10.92V6.65H70.5713V10.808C70.5713 11.592 70.7626 12.1847 71.1453 12.586C71.5373 12.978 72.0833 13.174 72.7833 13.174C73.2966 13.174 73.7399 13.0713 74.1133 12.866C74.4959 12.6513 74.7853 12.3433 74.9813 11.942C75.1866 11.5407 75.2893 11.06 75.2893 10.5V6.65H76.2833V14H75.3313V11.984L75.4853 12.348C75.2519 12.8893 74.8879 13.314 74.3933 13.622C73.9079 13.9207 73.3386 14.07 72.6853 14.07ZM79.0535 14V6.65H80.0055V8.652L79.9075 8.302C80.1128 7.742 80.4582 7.31733 80.9435 7.028C81.4288 6.72933 82.0308 6.58 82.7495 6.58V7.546C82.7122 7.546 82.6748 7.546 82.6375 7.546C82.6002 7.53667 82.5628 7.532 82.5255 7.532C81.7508 7.532 81.1442 7.77 80.7055 8.246C80.2668 8.71267 80.0475 9.38 80.0475 10.248V14H79.0535ZM91.3887 14.07C90.6607 14.07 90.0074 13.9113 89.4287 13.594C88.8594 13.2673 88.4114 12.824 88.0847 12.264C87.758 11.6947 87.5947 11.046 87.5947 10.318C87.5947 9.58067 87.758 8.932 88.0847 8.372C88.4114 7.812 88.8594 7.37333 89.4287 7.056C90.0074 6.73867 90.6607 6.58 91.3887 6.58C92.014 6.58 92.5787 6.70133 93.0827 6.944C93.5867 7.18667 93.9834 7.55067 94.2727 8.036L93.5307 8.54C93.2787 8.16667 92.966 7.89133 92.5927 7.714C92.2194 7.53667 91.8134 7.448 91.3747 7.448C90.852 7.448 90.3807 7.56933 89.9607 7.812C89.5407 8.04533 89.2094 8.37667 88.9667 8.806C88.724 9.23533 88.6027 9.73933 88.6027 10.318C88.6027 10.8967 88.724 11.4007 88.9667 11.83C89.2094 12.2593 89.5407 12.5953 89.9607 12.838C90.3807 13.0713 90.852 13.188 91.3747 13.188C91.8134 13.188 92.2194 13.0993 92.5927 12.922C92.966 12.7447 93.2787 12.474 93.5307 12.11L94.2727 12.614C93.9834 13.09 93.5867 13.454 93.0827 13.706C92.5787 13.9487 92.014 14.07 91.3887 14.07ZM98.006 14L94.744 6.65H95.78L98.776 13.468H98.286L101.324 6.65H102.304L99.028 14H98.006ZM107.536 14V5.726C107.536 5.07267 107.727 4.54533 108.11 4.144C108.493 3.74267 109.043 3.542 109.762 3.542C110.042 3.542 110.313 3.57933 110.574 3.654C110.835 3.72867 111.055 3.84533 111.232 4.004L110.896 4.746C110.756 4.62467 110.593 4.536 110.406 4.48C110.219 4.41467 110.019 4.382 109.804 4.382C109.384 4.382 109.062 4.49867 108.838 4.732C108.614 4.96533 108.502 5.31067 108.502 5.768V6.888L108.53 7.35V14H107.536ZM106.22 7.476V6.65H110.77V7.476H106.22ZM112.114 14V6.65H113.108V14H112.114ZM112.618 5.026C112.413 5.026 112.24 4.956 112.1 4.816C111.96 4.676 111.89 4.508 111.89 4.312C111.89 4.116 111.96 3.95267 112.1 3.822C112.24 3.682 112.413 3.612 112.618 3.612C112.823 3.612 112.996 3.67733 113.136 3.808C113.276 3.93867 113.346 4.102 113.346 4.298C113.346 4.50333 113.276 4.676 113.136 4.816C113.005 4.956 112.833 5.026 112.618 5.026ZM115.899 14V3.612H116.893V14H115.899ZM122.781 14.07C122.016 14.07 121.344 13.9113 120.765 13.594C120.186 13.2673 119.734 12.824 119.407 12.264C119.08 11.6947 118.917 11.046 118.917 10.318C118.917 9.59 119.071 8.946 119.379 8.386C119.696 7.826 120.126 7.38733 120.667 7.07C121.218 6.74333 121.834 6.58 122.515 6.58C123.206 6.58 123.817 6.73867 124.349 7.056C124.89 7.364 125.315 7.80267 125.623 8.372C125.931 8.932 126.085 9.58067 126.085 10.318C126.085 10.3647 126.08 10.416 126.071 10.472C126.071 10.5187 126.071 10.57 126.071 10.626H119.673V9.884H125.539L125.147 10.178C125.147 9.646 125.03 9.17467 124.797 8.764C124.573 8.344 124.265 8.01733 123.873 7.784C123.481 7.55067 123.028 7.434 122.515 7.434C122.011 7.434 121.558 7.55067 121.157 7.784C120.756 8.01733 120.443 8.344 120.219 8.764C119.995 9.184 119.883 9.66467 119.883 10.206V10.36C119.883 10.92 120.004 11.4147 120.247 11.844C120.499 12.264 120.844 12.5953 121.283 12.838C121.731 13.0713 122.24 13.188 122.809 13.188C123.257 13.188 123.672 13.1087 124.055 12.95C124.447 12.7913 124.783 12.5487 125.063 12.222L125.623 12.866C125.296 13.258 124.886 13.5567 124.391 13.762C123.906 13.9673 123.369 14.07 122.781 14.07Z" fill="black"/>
<path d="M128.232 38.0812C100.249 37.0916 74.3944 37.1516 48.5203 38.0812C47.303 38.125 46.3345 39.123 46.3054 40.3402C46.2955 40.7491 46.1545 49.0647 46.1545 49.0647C46.1545 50.3062 47.133 51.3285 48.3745 51.3723C75.4422 52.3293 101.287 52.3348 128.082 51.3723C129.304 51.3285 130.272 50.3305 130.297 49.1132C130.307 48.7041 130.453 40.384 130.453 40.384C130.453 39.1473 129.474 38.125 128.233 38.0812H128.232ZM86.5439 42.318C86.2019 41.8874 85.6444 41.6559 84.8695 41.6249C80.9742 41.4693 79.6339 48.0728 84.6531 48.2294C85.2921 48.2444 85.6939 47.9462 86.2121 47.5936C86.4397 47.4411 86.5337 47.328 86.7437 47.3689C87.0688 47.4363 87.1746 47.8563 86.8828 48.0686C86.5823 48.2038 85.8327 49.0247 84.6378 48.9963C83.1348 48.9518 82.0492 48.364 81.4016 47.5632C79.709 45.4698 80.933 41.9241 83.4889 41.0582C84.6781 40.6596 86.3141 40.8044 87.1455 41.8484C87.2094 41.9302 87.2363 42.0242 87.227 42.129C87.1979 42.4621 86.7418 42.5935 86.5439 42.3176V42.318ZM95.4924 41.5655C94.559 43.5701 93.678 45.2642 92.8517 46.6503C92.1558 48.1325 91.7173 48.3726 91.3711 48.2956C91.2835 48.2789 91.2112 48.2409 91.1547 48.1811L91.1125 48.1146C91.0556 48.0558 90.943 47.5722 90.8868 47.3641C90.4994 46.0548 90.5924 46.5189 90.149 45.4413L89.6782 44.3689C89.2639 43.399 89.0184 42.2825 88.4139 41.4264C88.2838 41.242 88.3401 41.0061 88.5076 40.8856C89.2578 40.3613 89.7188 42.6194 90.8567 45.1501C91.2761 46.1622 91.2717 45.9186 91.6255 47.1608L91.646 47.249C92.9406 45.0609 93.8686 43.2306 94.7968 41.2439C95.0331 40.766 95.698 41.1384 95.4924 41.5658V41.5655Z" fill="#6374FF"/>
<path d="M75.9664 77.7422C75.9664 86.9413 67.2631 93.9044 58.1363 91.5003L59.4446 87.6596C59.529 87.6705 59.6134 87.6705 59.6978 87.6705C64.3296 87.9233 66.5346 84.2623 66.7456 79.6307C66.8194 78.0587 66.6929 76.149 66.2393 73.8596C66.2393 73.8596 61.4492 74.1445 57.6932 72.8045L56.6486 77.6262C56.6486 77.6262 55.3191 75.4739 52.8715 76.1807C50.4239 76.8874 50.6032 80.6751 53.1563 80.9813C53.0297 81.6775 53.0508 82.353 53.1985 82.9859L51.6581 87.7654C49.0944 85.2017 47.5223 81.6567 47.5223 77.7425C47.5223 69.893 53.8842 63.5098 61.734 63.5098C69.5838 63.5098 75.9668 69.893 75.9668 77.7425L75.9664 77.7422Z" fill="#F19BF9"/>
<path d="M59.3177 101.945C56.0997 101.829 53.0192 101.85 50.0754 102.03C49.1363 102.093 48.3873 102.853 48.3346 103.792C48.1447 106.82 48.1869 109.827 48.419 112.812C51.3732 113.002 54.4854 113.118 57.7562 112.749C58.6848 112.643 59.3704 111.863 59.4021 110.934C59.498 107.09 59.3887 104.65 59.3177 101.945ZM56.6799 104.942C55.345 105.943 55.0867 106.117 53.6201 108.054C52.7791 109.081 52.65 109.573 52.1746 109.573H52.0797C51.8793 109.542 51.7632 109.405 51.6999 109.341C51.1725 108.782 50.5607 108.329 49.8747 107.981C49.6743 107.886 49.6004 107.643 49.6954 107.453C49.8008 107.252 50.0329 107.179 50.2333 107.274C50.951 107.632 51.5944 108.107 52.1535 108.677C53.9283 106.326 54.3863 105.615 56.2154 104.309C56.3842 104.182 56.6374 104.214 56.7639 104.393C56.8905 104.572 56.8589 104.815 56.6796 104.942H56.6799Z" fill="#F19BF9"/>
<path d="M59.3177 122.687C56.0997 122.571 53.0192 122.592 50.0754 122.772C49.1363 122.835 48.3873 123.595 48.3346 124.544C48.1447 127.572 48.1869 130.569 48.419 133.554C51.3732 133.745 54.4854 133.86 57.7562 133.491C58.6848 133.386 59.3704 132.605 59.4021 131.677C59.4983 127.818 59.3883 125.371 59.3177 122.688V122.687ZM56.6799 125.694C54.8722 127.017 54.729 127.325 52.7129 129.999C52.4224 130.387 52.0634 130.447 51.6999 130.084C51.1725 129.525 50.5607 129.071 49.8747 128.723C49.6743 128.628 49.6004 128.396 49.6954 128.195C49.8008 128.005 50.0329 127.921 50.2333 128.016C50.951 128.374 51.5944 128.849 52.1535 129.419C54.0926 126.861 54.4173 126.361 56.1943 125.062C56.6252 124.757 57.0926 125.379 56.6796 125.695L56.6799 125.694Z" fill="#6374FF"/>
<path d="M1.64728 71.6067L0.0432344 67.9526C-0.085268 67.6595 0.0844699 67.322 0.396456 67.2507L5.60368 66.0615C6.06559 65.9561 6.4089 66.4825 6.126 66.8626L2.52282 71.7057C2.28947 72.0193 1.80423 71.9644 1.64728 71.6063V71.6067Z" fill="#EFF0F4"/>
<path d="M128.247 37.6865C101.631 36.746 75.7641 36.708 48.5062 37.6865C47.0844 37.7379 45.9438 38.8996 45.9096 40.3313C45.8994 40.7398 45.7581 49.0586 45.7581 49.0653C45.7581 49.0784 45.7616 49.0909 45.7619 49.104L45.7581 49.2891C45.7571 49.3447 45.7718 49.399 45.7955 49.4495C45.9761 50.7307 47.0319 51.7217 48.3598 51.7687C74.9783 52.7091 100.837 52.7471 128.096 51.7687C129.523 51.7172 130.663 50.5549 130.692 49.1238C130.702 48.7147 130.847 40.3917 130.847 40.3917V40.385C130.847 38.9235 129.705 37.7382 128.247 37.6865ZM129.901 49.1056C129.881 50.1195 129.075 50.9411 128.067 50.9772C100.775 51.9576 74.932 51.9157 48.3892 50.9772C47.4283 50.9436 46.6701 50.2094 46.57 49.2773L46.6624 43.7632C46.663 43.7258 46.6519 43.6919 46.6429 43.6573C46.672 41.9788 46.6976 40.5161 46.7017 40.3508C46.7254 39.3369 47.5312 38.5144 48.5356 38.4783C75.7743 37.4998 101.623 37.5378 128.219 38.4783C129.248 38.5144 130.055 39.3503 130.057 40.3818C130.054 40.5765 129.912 48.7003 129.901 49.1062L129.901 49.1056Z" fill="black"/>
<path d="M76.7928 76.8481C76.7928 68.2876 69.8287 61.3232 61.2689 61.3232C52.7091 61.3232 45.7585 68.2876 45.7585 76.8481C45.7585 84.5588 51.2873 88.7601 51.208 88.6546C51.9886 89.3377 52.9814 90.009 53.6962 90.3932C64.267 96.234 76.7931 88.4804 76.7931 76.8481H76.7928ZM51.9301 88.2145L53.5744 83.1086C53.5971 83.0402 53.6003 82.9669 53.5837 82.8973C53.4446 82.2985 53.4312 81.6784 53.5456 81.0535C53.5869 80.8268 53.4274 80.6171 53.2036 80.5893C52.0714 80.4538 51.5983 79.5271 51.5375 78.7743C51.3224 76.1295 54.9362 75.6091 56.312 77.8361C56.3136 77.8387 56.3171 77.8393 56.3187 77.8419C56.4932 78.1053 56.9545 78.0791 57.0344 77.7108C57.1328 77.2595 58.049 73.0563 57.9905 73.3242C60.3531 74.0798 63.4368 74.3493 65.9158 74.2707C66.634 78.1136 66.8274 83.3032 63.9294 85.9225C62.2205 87.4706 59.2084 87.9479 56.9254 86.1434C56.7576 86.0095 56.505 86.0366 56.3701 86.2089C56.2343 86.3806 56.264 86.6293 56.435 86.7648C57.0961 87.2865 57.9413 87.6736 58.9335 87.9344L57.8348 91.1569C55.789 90.6733 53.6591 89.6609 51.9307 88.2141L51.9301 88.2145ZM58.6167 91.3183L59.7237 88.069C64.5911 88.3027 66.9227 84.4399 67.141 79.6499C67.2174 78.0254 67.0649 76.2072 66.7082 74.2521C68.0348 74.2176 71.6443 73.8733 71.9998 71.1249C72.0615 70.6457 71.9266 70.2129 71.6092 69.8734C70.9251 69.1424 69.5154 68.9736 68.6098 68.9452C68.9314 68.4193 69.2549 67.6656 69.057 66.9684C68.8943 66.3965 68.4286 65.9906 67.6732 65.762C66.7996 65.4973 65.8959 65.7217 65.0645 66.4112C63.5902 67.6326 61.7222 68.1109 59.9481 67.7186C57.1642 67.1062 54.7984 67.4214 53.1045 68.6325C49.4377 71.263 50.8528 75.9163 51.2201 76.9347C50.2027 78.5068 50.8506 80.8038 52.7101 81.2993C52.6484 81.8628 52.6739 82.4223 52.7893 82.9679L51.2847 87.6359C48.278 84.8622 46.5496 80.9736 46.5496 76.8484C46.5496 68.7243 53.1531 62.1147 61.2689 62.1147C69.3847 62.1147 76.0016 68.7243 76.0016 76.8484C76.0016 85.8634 67.8468 93.016 58.6167 91.3183Z" fill="black"/>
<path d="M61.289 78.4324C61.328 78.1051 61.096 77.8027 60.769 77.764C60.4419 77.725 60.1456 77.9574 60.1005 78.2841C60.0616 78.6111 60.2943 78.9075 60.6206 78.9525C60.9476 78.9912 61.25 78.7591 61.289 78.4324Z" fill="black"/>
<path d="M64.9232 78.2369C64.6199 78.1938 64.3354 78.4108 64.2977 78.7202C64.2606 79.0242 64.4776 79.309 64.7871 79.3464C65.0907 79.3835 65.3695 79.1662 65.413 78.857C65.45 78.5534 65.2327 78.2743 64.9229 78.2369H64.9232Z" fill="black"/>
<path d="M59.3011 77.1012L61.1269 76.7684C61.3411 76.7288 61.4843 76.5233 61.4453 76.3078C61.406 76.0946 61.2062 75.9517 60.9847 75.9894L59.1588 76.3222C58.9446 76.3618 58.8014 76.5674 58.8404 76.7828C58.8791 76.9928 59.0798 77.1396 59.3011 77.1012Z" fill="black"/>
<path d="M63.8818 76.9699L65.552 77.3036C65.7646 77.3462 65.9739 77.209 66.0177 76.9936C66.0599 76.7794 65.9209 76.5707 65.7067 76.5278L64.0365 76.1941C63.8252 76.1519 63.6139 76.29 63.5707 76.5042C63.5286 76.7183 63.6676 76.9271 63.8818 76.9699Z" fill="black"/>
<path d="M62.6425 81.0892C62.4817 81.18 61.7266 81.1205 61.0566 80.961C60.8402 80.9098 60.6312 81.0425 60.5807 81.2535C60.5292 81.4664 60.6599 81.6796 60.8722 81.7304C61.4978 81.8803 62.7614 82.115 63.2006 81.6463C63.8281 80.9725 63.284 78.9468 63.0203 78.1071C62.9554 77.899 62.7329 77.7836 62.5248 77.8478C62.3167 77.9134 62.2004 78.1352 62.2662 78.344C62.6514 79.5756 62.8215 80.8926 62.6421 81.0889L62.6425 81.0892Z" fill="black"/>
<path d="M61.7624 85.1192C61.9807 85.1125 62.153 84.9306 62.1466 84.7122C62.1406 84.4926 61.9344 84.3072 61.7397 84.328C60.7494 84.3632 60.1325 84.0899 59.5328 83.3777C59.3915 83.2108 59.1434 83.19 58.9753 83.3297C58.8075 83.471 58.7867 83.7203 58.927 83.8875C59.6786 84.7791 60.5231 85.155 61.7624 85.1192Z" fill="black"/>
<path d="M54.0401 77.3721C52.9757 77.1346 52.2452 77.811 52.2452 78.7444C52.2452 78.9627 52.4223 79.1401 52.641 79.1401C52.8596 79.1401 53.0367 78.963 53.0367 78.7444C53.0367 78.2831 53.334 78.0222 53.8649 78.1437C54.0833 78.1923 54.2895 78.0577 54.339 77.8455C54.3863 77.6323 54.2533 77.4203 54.0401 77.3721Z" fill="black"/>
<path d="M128.229 64.2449C121.211 64.2222 114.137 64.2401 107.209 64.2973C106.991 64.2992 106.814 64.4776 106.816 64.6959C106.818 64.9133 106.995 65.0885 107.212 65.0885H107.215C114.141 65.0313 121.208 65.0143 128.227 65.036H128.228C128.446 65.036 128.622 64.8599 128.623 64.6416C128.624 64.4233 128.447 64.2455 128.229 64.2449H128.229Z" fill="black"/>
<path d="M102.739 64.3408H102.735C95.6826 64.4172 88.6114 64.5371 81.7167 64.6972C81.4984 64.7024 81.3252 64.8836 81.3303 65.1022C81.3354 65.3177 81.5115 65.4887 81.726 65.4887H81.7353C88.6271 65.3286 95.6951 65.2084 102.744 65.1323C102.962 65.1297 103.137 64.951 103.135 64.7324C103.133 64.515 102.956 64.3408 102.739 64.3408Z" fill="black"/>
<path d="M128.2 73.0263H128.201C128.418 73.0263 128.595 72.8502 128.596 72.6322C128.597 72.4138 128.42 72.2355 128.202 72.2348C126.141 72.2275 124.079 72.2246 122.016 72.2246C121.798 72.2246 121.62 72.4017 121.62 72.6203C121.62 72.839 121.797 73.0161 122.016 73.0161C124.079 73.0161 126.139 73.0193 128.2 73.0263H128.2Z" fill="black"/>
<path d="M116.497 72.2354H116.496C108.072 72.2616 99.6425 72.3476 91.442 72.4904C91.2237 72.4946 91.0495 72.6742 91.0536 72.8929C91.0578 73.1093 91.2339 73.2819 91.4494 73.2819C92.5305 73.2819 101.74 73.0729 116.499 73.0268C116.717 73.0262 116.894 72.8485 116.893 72.6301C116.892 72.4118 116.716 72.2357 116.497 72.2357V72.2354Z" fill="black"/>
<path d="M81.6982 73.4782C82.5121 73.4782 79.9634 73.4999 88.311 73.3382C88.81 73.3289 88.8525 72.5352 88.2966 72.547C86.0887 72.5898 83.8869 72.6362 81.6893 72.687C81.471 72.6921 81.2977 72.8734 81.3028 73.092C81.3079 73.3075 81.4841 73.4785 81.6986 73.4785L81.6982 73.4782Z" fill="black"/>
<path d="M108.204 80.2697C107.986 80.2713 107.81 80.4499 107.812 80.6683C107.814 80.8856 107.99 81.0608 108.207 81.0608H108.211C114.817 81.0109 121.532 80.995 128.172 81.017H128.173C128.39 81.017 128.567 80.8409 128.569 80.6229C128.57 80.4039 128.393 80.2262 128.174 80.2255C121.531 80.2019 114.813 80.2179 108.205 80.2693L108.204 80.2697Z" fill="black"/>
<path d="M81.6713 81.4676C81.9594 81.4676 92.986 81.1911 104.928 81.06C105.146 81.0575 105.321 80.8788 105.319 80.6601C105.317 80.4428 105.14 80.2686 104.924 80.2686H104.919C98.4818 80.3392 89.136 80.5029 81.6618 80.6761C81.4434 80.6812 81.2702 80.8625 81.2753 81.0811C81.2804 81.2966 81.4565 81.4676 81.671 81.4676H81.6713Z" fill="black"/>
<path d="M81.6436 89.4592C82.2979 89.4592 90.6665 89.2242 103.812 89.0903C104.03 89.0884 104.206 88.9091 104.204 88.6904C104.201 88.4737 104.024 88.2988 103.808 88.2988H103.804C96.366 88.3746 88.9065 88.4986 81.6343 88.6677C81.416 88.6728 81.2427 88.8541 81.2478 89.0727C81.2529 89.2882 81.4291 89.4592 81.6436 89.4592Z" fill="black"/>
<path d="M128.526 102.177C128.518 101.959 128.379 101.783 128.116 101.796C119.312 102.112 109.963 102.293 98.6954 102.364C98.4771 102.366 98.3009 102.544 98.3019 102.762C98.3028 102.98 98.4803 103.155 98.6976 103.155H98.6995C109.976 103.084 119.333 102.904 128.145 102.587C128.363 102.579 128.534 102.395 128.526 102.177Z" fill="black"/>
<path d="M65.6993 102.771C65.6993 102.99 65.8764 103.167 66.0951 103.167C77.0392 103.186 85.8877 103.208 94.1498 103.178C94.3682 103.177 94.5456 102.999 94.5443 102.78C94.5433 102.562 94.3659 102.386 94.1486 102.386H94.1476C86.2089 102.415 77.8415 102.395 66.0951 102.376C65.8767 102.376 65.6993 102.553 65.6993 102.771V102.771Z" fill="black"/>
<path d="M128.2 110.688C125.001 110.803 121.798 110.898 118.597 110.974C118.379 110.979 118.206 111.16 118.211 111.379C118.216 111.594 118.392 111.765 118.607 111.765H118.616C121.821 111.689 125.026 111.595 128.229 111.48C128.447 111.472 128.617 111.288 128.61 111.07C128.602 110.853 128.46 110.682 128.2 110.689L128.2 110.688Z" fill="black"/>
<path d="M114.819 111.056H114.811C108.257 111.186 101.326 111.258 92.9965 111.283C92.7782 111.284 92.6008 111.462 92.6021 111.68C92.603 111.898 92.7791 112.074 92.9978 112.074H92.9988C101.332 112.049 108.268 111.977 114.827 111.847C115.046 111.842 115.219 111.662 115.215 111.444C115.21 111.228 115.034 111.056 114.819 111.056V111.056Z" fill="black"/>
<path d="M66.1785 111.27C65.9602 111.27 65.7828 111.446 65.7828 111.665C65.7828 111.883 65.9589 112.061 66.1785 112.061C74.73 112.075 83.3384 112.093 89.3246 112.083C89.5429 112.083 89.7191 111.906 89.7191 111.687C89.7191 111.469 89.542 111.292 89.3233 111.292C86.7082 111.292 88.4909 111.309 66.1782 111.27H66.1785Z" fill="black"/>
<path d="M57.635 100.448C54.2246 100.325 51.2057 100.351 48.4043 100.53C47.3225 100.6 46.4537 101.47 46.3828 102.555C46.2178 105.499 46.2488 108.403 46.4755 111.185C46.5589 112.244 47.4274 113.096 48.4928 113.167C51.6897 113.405 54.7194 113.513 57.9048 113.143C58.9536 113.031 59.7665 112.131 59.7956 111.049C59.8045 109.794 59.9075 107.327 59.7154 102.54C59.6722 101.409 58.7593 100.491 57.635 100.448V100.448ZM59.0044 111.028C58.9869 111.715 58.478 112.286 57.8175 112.356C54.535 112.738 51.4244 112.592 48.5497 112.378C47.8698 112.333 47.3174 111.793 47.265 111.123C47.0403 108.375 47.0096 105.508 47.1723 102.603C47.2167 101.928 47.7813 101.364 48.4551 101.319C51.488 101.127 54.5679 101.13 57.6053 101.239C58.3181 101.266 58.8974 101.85 58.9242 102.571C59.0438 105.53 59.0716 108.376 59.0044 111.028V111.028Z" fill="black"/>
<path d="M98.3019 123.507C98.3028 123.725 98.4803 123.901 98.6976 123.901C105.004 123.901 118.223 123.689 128.145 123.332C128.364 123.324 128.534 123.141 128.527 122.922C128.519 122.705 128.379 122.526 128.117 122.541C119.313 122.858 109.963 123.038 98.6957 123.109C98.4774 123.111 98.3012 123.289 98.3022 123.507H98.3019Z" fill="black"/>
<path d="M66.0951 123.914C77.4058 123.932 86.0315 123.953 94.1498 123.924C94.3682 123.923 94.5456 123.745 94.5443 123.526C94.5433 123.308 94.3659 123.132 94.1486 123.132H94.1476C86.5033 123.161 78.4105 123.143 66.0951 123.122C65.8767 123.122 65.6993 123.299 65.6993 123.517C65.6993 123.735 65.8764 123.913 66.0951 123.913V123.914Z" fill="black"/>
<path d="M128.2 131.434C125.001 131.548 121.798 131.642 118.597 131.719C118.379 131.724 118.206 131.905 118.211 132.124C118.216 132.339 118.392 132.511 118.607 132.511C119.192 132.511 124.745 132.35 128.229 132.225C128.447 132.217 128.617 132.034 128.61 131.815C128.602 131.598 128.46 131.426 128.2 131.434L128.2 131.434Z" fill="black"/>
<path d="M114.819 131.802C113.736 131.802 108.588 131.982 92.9965 132.029C92.7782 132.03 92.6008 132.208 92.6021 132.426C92.603 132.644 92.7791 132.821 92.9978 132.821H92.9988C101.332 132.795 108.268 132.723 114.827 132.593C115.046 132.588 115.219 132.408 115.215 132.19C115.21 131.974 115.034 131.802 114.819 131.802V131.802Z" fill="black"/>
<path d="M89.3237 132.037C86.6142 132.036 88.6693 132.053 66.1785 132.015C65.9602 132.015 65.7828 132.191 65.7828 132.41C65.7828 132.628 65.9599 132.806 66.1785 132.806C75.6458 132.821 83.6699 132.836 89.3246 132.828C89.5429 132.827 89.7191 132.65 89.7191 132.432C89.7191 132.213 89.542 132.037 89.3233 132.037H89.3237Z" fill="black"/>
<path d="M57.635 121.198C54.2256 121.075 51.2057 121.101 48.4094 121.279C47.3245 121.336 46.4537 122.205 46.3828 123.305C46.2178 126.249 46.2488 129.153 46.4755 131.935C46.5589 132.993 47.4274 133.845 48.4947 133.917C51.7019 134.143 54.7239 134.262 57.9048 133.892C58.9536 133.78 59.7665 132.881 59.7956 131.798V131.798C59.8627 129.128 59.8346 126.265 59.7154 123.289C59.6722 122.158 58.7593 121.24 57.635 121.197V121.198ZM59.0044 131.778C58.9869 132.465 58.478 133.036 57.8175 133.106C54.4803 133.494 51.2844 133.32 48.5497 133.128C47.8698 133.082 47.3174 132.543 47.265 131.872C47.0403 129.125 47.0096 126.258 47.1723 123.353C47.2167 122.668 47.7781 122.105 48.4551 122.069C51.488 121.877 54.5679 121.879 57.6053 121.989C58.3181 122.016 58.8974 122.6 58.9242 123.32C59.0438 126.28 59.0716 129.126 59.0044 131.778V131.778Z" fill="black"/>
<path d="M51.8131 28.6905L51.8088 29.3404L51.8131 28.6905ZM62.323 28.917L62.2983 29.5666L62.323 28.917ZM63.4293 28.9591L63.4046 29.6086L63.4293 28.9591ZM73.386 28.9107L73.3549 28.2614L73.386 28.9107ZM85.0021 28.887L84.9708 29.5362L85.0021 28.887ZM96.0651 28.981L96.0448 28.3313L96.0651 28.981ZM107.681 28.9387L107.667 29.5885L107.681 28.9387ZM117.638 28.6392L117.691 29.287L117.638 28.6392ZM118.744 28.5488L118.691 27.901L118.744 28.5488ZM128.69 28.4693L128.647 29.1179L128.69 28.4693ZM136.686 32.7738L137.269 32.4864L136.686 32.7738ZM137.114 33.6416L136.531 33.929L137.114 33.6416ZM138.883 42.5249L139.533 42.5452L138.883 42.5249ZM138.866 43.078L138.217 43.0577L138.866 43.078ZM138.849 43.6312L139.499 43.6515L138.849 43.6312ZM138.949 53.5879L138.299 53.6212L138.949 53.5879ZM138.977 54.141L139.626 54.1078L138.977 54.141ZM139.005 54.6942L138.356 54.7275L139.005 54.6942ZM139.277 64.6509L139.927 64.6487L139.277 64.6509ZM139.279 65.204L138.629 65.2062L139.279 65.204ZM139.281 65.7572L139.931 65.755L139.281 65.7572ZM139.442 75.7139L140.092 75.695L139.442 75.7139ZM139.458 76.267L138.808 76.2859L139.458 76.267ZM139.474 76.8202L140.124 76.8013L139.474 76.8202ZM139.184 86.7769L139.831 86.8335L139.184 86.7769ZM139.135 87.33L138.488 87.2734L139.135 87.33ZM139.087 87.8832L139.735 87.9398L139.087 87.8832ZM138.933 97.8399L138.284 97.8766L138.933 97.8399ZM138.965 98.393L139.614 98.3564L138.965 98.393ZM138.996 98.9462L138.347 98.9829L138.996 98.9462ZM139.048 108.903L138.399 108.873L139.048 108.903ZM139.046 119.966L138.397 120.002L139.046 119.966ZM139.076 120.519L139.725 120.483L139.076 120.519ZM139.107 121.072L138.458 121.108L139.107 121.072ZM139.284 131.029L139.934 131.042L139.284 131.029ZM139.273 131.582L138.623 131.569L139.273 131.582ZM139.261 132.135L139.911 132.148L139.261 132.135ZM136.479 140.371L136.98 140.784L136.479 140.371ZM135.883 141.095L135.381 140.681L135.883 141.095ZM128.222 144.428L128.212 143.778L128.222 144.428ZM127.669 144.436L127.679 145.086L127.669 144.436ZM127.116 144.445L127.106 143.795L127.116 144.445ZM117.159 144.292L117.189 143.642L117.159 144.292ZM116.606 144.266L116.576 144.915L116.606 144.266ZM116.053 144.241L116.082 143.591L116.053 144.241ZM106.096 144.225L106.068 143.576L106.096 144.225ZM105.543 144.249L105.571 144.898L105.543 144.249ZM104.99 144.273L104.962 143.623L104.99 144.273ZM95.0329 144.28L95.0597 143.63L95.0329 144.28ZM94.4797 144.257L94.4529 144.906L94.4797 144.257ZM93.9266 144.234L93.9534 143.585L93.9266 144.234ZM83.9699 144.295L84.0047 144.944L83.9699 144.295ZM83.4167 144.325L83.3819 143.676L83.4167 144.325ZM82.8636 144.355L82.8984 145.004L82.8636 144.355ZM72.9069 144.446L72.8839 145.095V145.095L72.9069 144.446ZM71.8006 144.407L71.8235 143.757L71.8006 144.407ZM61.8439 144.237L61.843 143.587L61.8439 144.237ZM61.2907 144.238L61.2915 144.888L61.2907 144.238ZM60.7376 144.238L60.7367 143.588L60.7376 144.238ZM50.8551 144.022L50.8256 144.671L50.8551 144.022ZM49.7653 143.972L49.7948 143.323L49.7653 143.972ZM43.399 139.644L44.0113 139.426L43.399 139.644ZM43.074 138.732L42.4617 138.95L43.074 138.732ZM41.4425 129.649L42.0921 129.627L41.4425 129.649ZM41.4237 129.096L40.774 129.118L41.4237 129.096ZM41.1341 96.4599L40.4846 96.4852L41.1341 96.4599ZM40.9899 84.8437L40.34 84.8328L40.9899 84.8437ZM41.2256 73.7807L40.5758 73.764L41.2256 73.7807ZM41.5184 63.2709L40.8687 63.2512L41.5184 63.2709ZM41.4887 51.6547L40.8392 51.6798V51.6798L41.4887 51.6547ZM43.3455 32.2991L42.8551 31.8724L43.3455 32.2991ZM43.6124 31.9923L44.1028 32.4189L43.6124 31.9923ZM43.8793 31.6855L43.389 31.2588L43.8793 31.6855ZM51.8131 28.6905L51.8088 29.3404L52.3619 29.3442L52.3663 28.6942L52.3706 28.0442L51.8175 28.0405L51.8131 28.6905ZM52.3663 28.6942L52.3619 29.3442C55.674 29.3664 58.9861 29.4405 62.2983 29.5666L62.323 28.917L62.3477 28.2675C59.022 28.141 55.6963 28.0665 52.3706 28.0442L52.3663 28.6942ZM62.323 28.917L62.2983 29.5666L62.8514 29.5876L62.8761 28.9381L62.9008 28.2885L62.3477 28.2675L62.323 28.917ZM62.8761 28.9381L62.8514 29.5876L63.4046 29.6086L63.4293 28.9591L63.454 28.3096L62.9008 28.2885L62.8761 28.9381ZM63.4293 28.9591L63.4046 29.6086C66.742 29.7356 70.0795 29.7194 73.417 29.56L73.386 28.9107L73.3549 28.2614C70.0546 28.4191 66.7543 28.4352 63.454 28.3096L63.4293 28.9591ZM73.386 28.9107L73.417 29.56L73.9701 29.5335L73.9391 28.8843L73.9081 28.235L73.3549 28.2614L73.386 28.9107ZM73.9391 28.8843L73.9701 29.5335L74.5233 29.5071L74.4923 28.8578L74.4612 28.2086L73.9081 28.235L73.9391 28.8843ZM74.4923 28.8578L74.5233 29.5071C77.8214 29.3495 81.1195 29.3503 84.4176 29.5095L84.449 28.8603L84.4803 28.2111C81.1406 28.0499 77.8009 28.049 74.4612 28.2086L74.4923 28.8578ZM84.449 28.8603L84.4176 29.5095L84.9708 29.5362L85.0021 28.887L85.0335 28.2378L84.4803 28.2111L84.449 28.8603ZM85.0021 28.887L84.9708 29.5362L85.5239 29.5629L85.5553 28.9137L85.5866 28.2645L85.0335 28.2378L85.0021 28.887ZM85.5553 28.9137L85.5239 29.5629C88.86 29.724 92.1962 29.7523 95.5323 29.6479L95.512 28.9983L95.4916 28.3486C92.19 28.4519 88.8883 28.4238 85.5866 28.2645L85.5553 28.9137ZM95.512 28.9983L95.5323 29.6479L96.0854 29.6306L96.0651 28.981L96.0448 28.3313L95.4916 28.3486L95.512 28.9983ZM96.0651 28.981L96.0854 29.6306L96.6386 29.6133L96.6183 28.9637L96.5979 28.314L96.0448 28.3313L96.0651 28.981ZM96.6183 28.9637L96.6386 29.6133C99.9461 29.5099 103.254 29.4937 106.561 29.5647L106.575 28.9149L106.589 28.265C103.259 28.1935 99.9283 28.2098 96.5979 28.314L96.6183 28.9637ZM106.575 28.9149L106.561 29.5647L107.114 29.5766L107.128 28.9268L107.142 28.2769L106.589 28.265L106.575 28.9149ZM107.128 28.9268L107.114 29.5766L107.667 29.5885L107.681 28.9387L107.695 28.2888L107.142 28.2769L107.128 28.9268ZM107.681 28.9387L107.667 29.5885C111.009 29.6603 114.35 29.5598 117.691 29.287L117.638 28.6392L117.585 27.9913C114.288 28.2605 110.992 28.3597 107.695 28.2888L107.681 28.9387ZM117.638 28.6392L117.691 29.287L118.244 29.2419L118.191 28.594L118.138 27.9462L117.585 27.9913L117.638 28.6392ZM118.191 28.594L118.244 29.2419L118.797 29.1967L118.744 28.5488L118.691 27.901L118.138 27.9462L118.191 28.594ZM118.744 28.5488L118.797 29.1967C122.084 28.9283 125.368 28.9021 128.647 29.1179L128.69 28.4693L128.732 27.8207C125.389 27.6007 122.042 27.6274 118.691 27.901L118.744 28.5488ZM128.69 28.4693L128.647 29.1179L129.199 29.1542L129.242 28.5056L129.284 27.857L128.732 27.8207L128.69 28.4693ZM129.242 28.5056L129.199 29.1542L129.751 29.1906L129.794 28.542L129.836 27.8934L129.284 27.857L129.242 28.5056ZM129.794 28.542L129.751 29.1906C132.87 29.3959 134.939 30.6997 136.103 33.0613L136.686 32.7738L137.269 32.4864C135.866 29.6414 133.34 28.1239 129.836 27.8934L129.794 28.542ZM136.686 32.7738L136.103 33.0613L136.317 33.4951L136.9 33.2077L137.483 32.9203L137.269 32.4864L136.686 32.7738ZM136.9 33.2077L136.317 33.4951L136.531 33.929L137.114 33.6416L137.697 33.3542L137.483 32.9203L136.9 33.2077ZM137.114 33.6416L136.531 33.929C137.761 36.4238 138.335 39.2767 138.234 42.5046L138.883 42.5249L139.533 42.5452C139.64 39.1353 139.034 36.066 137.697 33.3542L137.114 33.6416ZM138.883 42.5249L138.234 42.5046L138.217 43.0577L138.866 43.078L139.516 43.0983L139.533 42.5452L138.883 42.5249ZM138.866 43.078L138.217 43.0577L138.199 43.6109L138.849 43.6312L139.499 43.6515L139.516 43.0983L138.866 43.078ZM138.849 43.6312L138.199 43.6109C138.095 46.9477 138.128 50.2844 138.299 53.6212L138.949 53.5879L139.598 53.5546C139.429 50.2535 139.395 46.9525 139.499 43.6515L138.849 43.6312ZM138.949 53.5879L138.299 53.6212L138.328 54.1743L138.977 54.141L139.626 54.1078L139.598 53.5546L138.949 53.5879ZM138.977 54.141L138.328 54.1743L138.356 54.7275L139.005 54.6942L139.654 54.6609L139.626 54.1078L138.977 54.141ZM139.005 54.6942L138.356 54.7275C138.526 58.036 138.616 61.3445 138.627 64.653L139.277 64.6509L139.927 64.6487C139.916 61.3194 139.825 57.9902 139.654 54.6609L139.005 54.6942ZM139.277 64.6509L138.627 64.653L138.629 65.2062L139.279 65.204L139.929 65.2019L139.927 64.6487L139.277 64.6509ZM139.279 65.204L138.629 65.2062L138.631 65.7593L139.281 65.7572L139.931 65.755L139.929 65.2019L139.279 65.204ZM139.281 65.7572L138.631 65.7593C138.642 69.0838 138.696 72.4083 138.792 75.7328L139.442 75.7139L140.092 75.695C139.995 72.3817 139.942 69.0683 139.931 65.755L139.281 65.7572ZM139.442 75.7139L138.792 75.7328L138.808 76.2859L139.458 76.267L140.108 76.2482L140.092 75.695L139.442 75.7139ZM139.458 76.267L138.808 76.2859L138.824 76.8391L139.474 76.8202L140.124 76.8013L140.108 76.2482L139.458 76.267ZM139.474 76.8202L138.824 76.8391C138.92 80.1327 138.824 83.4264 138.536 86.7203L139.184 86.7769L139.831 86.8335C140.123 83.4896 140.221 80.1455 140.124 76.8013L139.474 76.8202ZM139.184 86.7769L138.536 86.7203L138.488 87.2734L139.135 87.33L139.783 87.3866L139.831 86.8335L139.184 86.7769ZM139.135 87.33L138.488 87.2734L138.439 87.8266L139.087 87.8832L139.735 87.9398L139.783 87.3866L139.135 87.33ZM139.087 87.8832L138.439 87.8266C138.147 91.1764 138.095 94.5265 138.284 97.8766L138.933 97.8399L139.582 97.8032C139.397 94.5154 139.447 91.2277 139.735 87.9398L139.087 87.8832ZM138.933 97.8399L138.284 97.8766L138.316 98.4297L138.965 98.393L139.614 98.3564L139.582 97.8032L138.933 97.8399ZM138.965 98.393L138.316 98.4297L138.347 98.9829L138.996 98.9462L139.645 98.9095L139.614 98.3564L138.965 98.393ZM138.996 98.9462L138.347 98.9829C138.533 102.28 138.551 105.576 138.399 108.873L139.048 108.903L139.698 108.933C139.851 105.592 139.834 102.251 139.645 98.9095L138.996 98.9462ZM139.048 108.903L138.399 108.873L138.374 109.426L139.023 109.456L139.672 109.486L139.698 108.933L139.048 108.903ZM139.023 109.456L138.374 109.426L138.348 109.979L138.997 110.009L139.647 110.039L139.672 109.486L139.023 109.456ZM138.997 110.009L138.348 109.979C138.194 113.32 138.211 116.661 138.397 120.002L139.046 119.966L139.695 119.93C139.511 116.633 139.495 113.336 139.647 110.039L138.997 110.009ZM139.046 119.966L138.397 120.002L138.427 120.555L139.076 120.519L139.725 120.483L139.695 119.93L139.046 119.966ZM139.076 120.519L138.427 120.555L138.458 121.108L139.107 121.072L139.756 121.036L139.725 120.483L139.076 120.519ZM139.107 121.072L138.458 121.108C138.642 124.411 138.701 127.713 138.634 131.016L139.284 131.029L139.934 131.042C140.001 127.707 139.942 124.371 139.756 121.036L139.107 121.072ZM139.284 131.029L138.634 131.016L138.623 131.569L139.273 131.582L139.922 131.595L139.934 131.042L139.284 131.029ZM139.273 131.582L138.623 131.569L138.612 132.122L139.261 132.135L139.911 132.148L139.922 131.595L139.273 131.582ZM139.261 132.135L138.612 132.122C138.547 135.322 137.656 137.918 135.977 139.958L136.479 140.371L136.98 140.784C138.878 138.48 139.842 135.586 139.911 132.148L139.261 132.135ZM136.479 140.371L135.977 139.958L135.679 140.32L136.181 140.733L136.682 141.146L136.98 140.784L136.479 140.371ZM136.181 140.733L135.679 140.32L135.381 140.681L135.883 141.095L136.384 141.508L136.682 141.146L136.181 140.733ZM135.883 141.095L135.381 140.681C133.736 142.679 131.378 143.73 128.212 143.778L128.222 144.428L128.232 145.078C131.703 145.025 134.453 143.854 136.384 141.508L135.883 141.095ZM128.222 144.428L128.212 143.778L127.659 143.786L127.669 144.436L127.679 145.086L128.232 145.078L128.222 144.428ZM127.669 144.436L127.659 143.786L127.106 143.795L127.116 144.445L127.125 145.094L127.679 145.086L127.669 144.436ZM127.116 144.445L127.106 143.795C123.8 143.845 120.494 143.794 117.189 143.642L117.159 144.292L117.129 144.941C120.461 145.094 123.793 145.145 127.125 145.094L127.116 144.445ZM117.159 144.292L117.189 143.642L116.636 143.617L116.606 144.266L116.576 144.915L117.129 144.941L117.159 144.292ZM116.606 144.266L116.636 143.617L116.082 143.591L116.053 144.241L116.023 144.89L116.576 144.915L116.606 144.266ZM116.053 144.241L116.082 143.591C112.744 143.438 109.406 143.433 106.068 143.576L106.096 144.225L106.124 144.875C109.423 144.733 112.723 144.738 116.023 144.89L116.053 144.241ZM106.096 144.225L106.068 143.576L105.515 143.599L105.543 144.249L105.571 144.898L106.124 144.875L106.096 144.225ZM105.543 144.249L105.515 143.599L104.962 143.623L104.99 144.273L105.017 144.922L105.571 144.898L105.543 144.249ZM104.99 144.273L104.962 143.623C101.661 143.764 98.3604 143.767 95.0597 143.63L95.0329 144.28L95.006 144.929C98.3431 145.067 101.68 145.065 105.017 144.922L104.99 144.273ZM95.0329 144.28L95.0597 143.63L94.5066 143.608L94.4797 144.257L94.4529 144.906L95.006 144.929L95.0329 144.28ZM94.4797 144.257L94.5066 143.608L93.9534 143.585L93.9266 144.234L93.8997 144.884L94.4529 144.906L94.4797 144.257ZM93.9266 144.234L93.9534 143.585C90.614 143.447 87.2745 143.467 83.9351 143.646L83.9699 144.295L84.0047 144.944C87.303 144.767 90.6014 144.747 93.8997 144.884L93.9266 144.234ZM83.9699 144.295L83.9351 143.646L83.3819 143.676L83.4167 144.325L83.4515 144.974L84.0047 144.944L83.9699 144.295ZM83.4167 144.325L83.3819 143.676L82.8288 143.706L82.8636 144.355L82.8984 145.004L83.4515 144.974L83.4167 144.325ZM82.8636 144.355L82.8288 143.706C79.5291 143.882 76.2294 143.913 72.9298 143.796L72.9069 144.446L72.8839 145.095C76.2221 145.213 79.5602 145.183 82.8984 145.004L82.8636 144.355ZM72.9069 144.446L72.9298 143.796L72.3767 143.777L72.3537 144.426L72.3308 145.076L72.8839 145.095L72.9069 144.446ZM72.3537 144.426L72.3767 143.777L71.8235 143.757L71.8006 144.407L71.7776 145.056L72.3308 145.076L72.3537 144.426ZM71.8006 144.407L71.8235 143.757C68.4967 143.639 65.1699 143.583 61.843 143.587L61.8439 144.237L61.8447 144.887C65.1557 144.883 68.4666 144.939 71.7776 145.056L71.8006 144.407ZM61.8439 144.237L61.843 143.587L61.2899 143.588L61.2907 144.238L61.2915 144.888L61.8447 144.887L61.8439 144.237ZM61.2907 144.238L61.2899 143.588L60.7367 143.588L60.7376 144.238L60.7384 144.888L61.2915 144.888L61.2907 144.238ZM60.7376 144.238L60.7367 143.588C57.4278 143.593 54.1438 143.521 50.8846 143.373L50.8551 144.022L50.8256 144.671C54.1052 144.82 57.4095 144.893 60.7384 144.888L60.7376 144.238ZM50.8551 144.022L50.8846 143.373L50.3397 143.348L50.3102 143.997L50.2807 144.646L50.8256 144.671L50.8551 144.022ZM50.3102 143.997L50.3397 143.348L49.7948 143.323L49.7653 143.972L49.7358 144.622L50.2807 144.646L50.3102 143.997ZM49.7653 143.972L49.7948 143.323C48.2476 143.253 47.0247 142.879 46.0871 142.241C45.1549 141.608 44.4588 140.683 44.0113 139.426L43.399 139.644L42.7866 139.863C43.314 141.343 44.1663 142.507 45.3562 143.316C46.5407 144.122 48.0136 144.543 49.7358 144.622L49.7653 143.972ZM43.399 139.644L44.0113 139.426L43.8488 138.97L43.2365 139.188L42.6242 139.406L42.7866 139.863L43.399 139.644ZM43.2365 139.188L43.8488 138.97L43.6863 138.514L43.074 138.732L42.4617 138.95L42.6242 139.406L43.2365 139.188ZM43.074 138.732L43.6863 138.514C42.7369 135.849 42.203 132.888 42.0921 129.627L41.4425 129.649L40.7929 129.671C40.9077 133.047 41.4615 136.142 42.4617 138.95L43.074 138.732ZM41.4425 129.649L42.0921 129.627L42.0733 129.074L41.4237 129.096L40.774 129.118L40.7929 129.671L41.4425 129.649ZM41.4237 129.096L42.0733 129.074L42.0545 128.52L41.4049 128.543L40.7552 128.565L40.774 129.118L41.4237 129.096ZM41.4049 128.543L42.0545 128.52C41.9421 125.216 41.94 121.912 42.0481 118.607L41.3984 118.586L40.7488 118.565C40.6397 121.898 40.6419 125.231 40.7552 128.565L41.4049 128.543ZM41.3984 118.586L42.0481 118.607L42.0662 118.054L41.4165 118.033L40.7669 118.011L40.7488 118.565L41.3984 118.586ZM41.4165 118.033L42.0662 118.054L42.0843 117.501L41.4346 117.48L40.785 117.458L40.7669 118.011L41.4165 118.033ZM41.4346 117.48L42.0843 117.501C42.1933 114.17 42.2073 110.838 42.1262 107.507L41.4764 107.523L40.8266 107.539C40.907 110.845 40.8932 114.152 40.785 117.458L41.4346 117.48ZM41.4764 107.523L42.1262 107.507L42.1127 106.954L41.4629 106.97L40.8131 106.986L40.8266 107.539L41.4764 107.523ZM41.4629 106.97L42.1127 106.954L42.0993 106.401L41.4495 106.417L40.7997 106.432L40.8131 106.986L41.4629 106.97ZM41.4495 106.417L42.0993 106.401C42.0184 103.079 41.9132 99.7566 41.7836 96.4345L41.1341 96.4599L40.4846 96.4852C40.614 99.801 40.719 103.117 40.7997 106.432L41.4495 106.417ZM41.1341 96.4599L41.7836 96.4345L41.762 95.8814L41.1125 95.9067L40.463 95.9321L40.4846 96.4852L41.1341 96.4599ZM41.1125 95.9067L41.762 95.8814L41.7404 95.3282L41.0909 95.3536L40.4414 95.3789L40.463 95.9321L41.1125 95.9067ZM41.0909 95.3536L41.7404 95.3282C41.6114 92.0214 41.5748 88.7146 41.6305 85.4078L40.9806 85.3969L40.3307 85.3859C40.2746 88.7169 40.3115 92.0479 40.4414 95.3789L41.0909 95.3536ZM40.9806 85.3969L41.6305 85.4078L41.6399 84.8547L40.9899 84.8437L40.34 84.8328L40.3307 85.3859L40.9806 85.3969ZM40.9899 84.8437L41.6399 84.8547L41.6492 84.3015L40.9993 84.2906L40.3494 84.2796L40.34 84.8328L40.9899 84.8437ZM40.9993 84.2906L41.6492 84.3015C41.7051 80.9846 41.7757 77.6676 41.8611 74.3506L41.2113 74.3339L40.5615 74.3172C40.4761 77.638 40.4054 80.9588 40.3494 84.2796L40.9993 84.2906ZM41.2113 74.3339L41.8611 74.3506L41.8753 73.7975L41.2256 73.7807L40.5758 73.764L40.5615 74.3172L41.2113 74.3339ZM41.2256 73.7807L41.8753 73.7975L41.8896 73.2443L41.2398 73.2276L40.59 73.2109L40.5758 73.764L41.2256 73.7807ZM41.2398 73.2276L41.8896 73.2443C41.975 69.9264 42.0678 66.6085 42.1682 63.2905L41.5184 63.2709L40.8687 63.2512C40.7684 66.5711 40.6754 69.891 40.59 73.2109L41.2398 73.2276ZM41.5184 63.2709L42.1682 63.2905L42.1849 62.7374L41.5352 62.7177L40.8855 62.6981L40.8687 63.2512L41.5184 63.2709ZM41.5352 62.7177L42.1849 62.7374L42.2016 62.1842L41.5519 62.1646L40.9022 62.1449L40.8855 62.6981L41.5352 62.7177ZM41.5519 62.1646L42.2016 62.1842C42.3024 58.8504 42.2884 55.5166 42.1596 52.1828L41.5101 52.2079L40.8606 52.233C40.9882 55.537 41.0021 58.841 40.9022 62.1449L41.5519 62.1646ZM41.5101 52.2079L42.1596 52.1828L42.1383 51.6296L41.4887 51.6547L40.8392 51.6798L40.8606 52.233L41.5101 52.2079ZM41.4887 51.6547L42.1383 51.6296L42.1169 51.0765L41.4674 51.1016L40.8178 51.1267L40.8392 51.6798L41.4887 51.6547ZM41.4674 51.1016L42.1169 51.0765C41.9887 47.7595 41.8749 44.4424 41.7754 41.1254L41.1257 41.1449L40.476 41.1644C40.5756 44.4851 40.6895 47.8059 40.8178 51.1267L41.4674 51.1016ZM41.1257 41.1449L41.7754 41.1254L41.7588 40.5723L41.1091 40.5917L40.4594 40.6112L40.476 41.1644L41.1257 41.1449ZM41.1091 40.5917L41.7588 40.5723L41.7422 40.0191L41.0925 40.0386L40.4428 40.0581L40.4594 40.6112L41.1091 40.5917ZM41.0925 40.0386L41.7422 40.0191C41.6458 36.8039 42.3754 34.4044 43.8359 32.7257L43.3455 32.2991L42.8551 31.8724C41.1126 33.8753 40.3402 36.6355 40.4428 40.0581L41.0925 40.0386ZM43.3455 32.2991L43.8359 32.7257L44.1028 32.4189L43.6124 31.9923L43.122 31.5656L42.8551 31.8724L43.3455 32.2991ZM43.6124 31.9923L44.1028 32.4189L44.3697 32.1121L43.8793 31.6855L43.389 31.2588L43.122 31.5656L43.6124 31.9923ZM43.8793 31.6855L44.3697 32.1121C45.1712 31.1909 45.7755 30.4862 46.1804 30.0002C46.3822 29.7581 46.5389 29.5649 46.6469 29.4243C46.7 29.3552 46.7481 29.29 46.7854 29.2339C46.8033 29.2069 46.8267 29.1702 46.8481 29.1293C46.8587 29.1091 46.8747 29.0768 46.8894 29.0366C46.9 29.0078 46.9316 28.9192 46.9316 28.8024H46.2816H45.6316C45.6316 28.6906 45.6617 28.6088 45.6691 28.5885C45.6807 28.5569 45.692 28.5348 45.6963 28.5265C45.7052 28.5096 45.7098 28.5036 45.7027 28.5143C45.69 28.5335 45.663 28.5711 45.616 28.6323C45.5239 28.7522 45.3803 28.9296 45.1817 29.168C44.7859 29.6431 44.189 30.3393 43.389 31.2588L43.8793 31.6855ZM46.2816 28.8024H46.9316V28.7888H46.2816H45.6316V28.8024H46.2816ZM46.2816 28.7888H46.9316V28.7753H46.2816H45.6316V28.7888H46.2816ZM46.2816 28.7753H46.9316C46.9316 29.0746 46.739 29.2407 46.6774 29.2871C46.605 29.3416 46.5399 29.3655 46.5216 29.3721C46.4775 29.388 46.4499 29.3911 46.4651 29.3886C46.4849 29.3853 46.5372 29.3792 46.6361 29.3726C46.8271 29.3598 47.1253 29.3494 47.5378 29.3421C48.3592 29.3275 49.5973 29.3256 51.2556 29.3367L51.26 28.6867L51.2643 28.0368C49.6037 28.0256 48.3526 28.0274 47.5146 28.0423C47.0974 28.0497 46.7733 28.0605 46.5495 28.0754C46.4409 28.0827 46.3376 28.092 46.2537 28.1059C46.2171 28.1119 46.1505 28.1239 46.0805 28.1492C46.0493 28.1605 45.9745 28.1891 45.8956 28.2484C45.8275 28.2997 45.6316 28.4708 45.6316 28.7753H46.2816ZM51.26 28.6867L51.2556 29.3367L51.8088 29.3404L51.8131 28.6905L51.8175 28.0405L51.2643 28.0368L51.26 28.6867Z" fill="#403872"/>
<path d="M41.5767 33.4234L41.5224 32.7757L41.3642 32.7889L41.2299 32.8737L41.5767 33.4234ZM40.7689 33.9331L40.422 33.3833L40.7689 33.9331ZM34.6236 54.5277L33.9791 54.6119L34.6236 54.5277ZM36.4152 77.1361L35.7693 77.2096L36.4152 77.1361ZM37.3772 88.1573L36.7284 88.1967L37.3772 88.1573ZM39.624 109.618L38.9741 109.632L39.624 109.618ZM39.6354 110.172L40.2853 110.159L39.6354 110.172ZM40.3088 121.772L39.6615 121.832L40.3088 121.772ZM40.8034 126.841L40.1868 127.047L40.8034 126.841ZM40.8076 126.854L40.1909 127.059L40.2561 127.255L40.4221 127.377L40.8076 126.854ZM40.8407 126.878L41.4885 126.825L41.4643 126.53L41.2262 126.355L40.8407 126.878ZM41.6764 33.415L41.622 32.7673L41.5224 32.7757L41.5767 33.4234L41.631 34.0711L41.7307 34.0628L41.6764 33.415ZM41.5767 33.4234L41.2299 32.8737L40.422 33.3833L40.7689 33.9331L41.1157 34.4828L41.9235 33.9731L41.5767 33.4234ZM40.7689 33.9331L40.422 33.3833C35.5241 36.4735 32.905 39.8427 33.0647 43.5278L33.7141 43.4996L34.3635 43.4715C34.2355 40.5173 36.3196 37.5088 41.1157 34.4828L40.7689 33.9331ZM33.7141 43.4996L33.0647 43.5278L33.0887 44.0811L33.7381 44.0529L34.3875 44.0248L34.3635 43.4715L33.7141 43.4996ZM33.7381 44.0529L33.0887 44.0811L33.1127 44.6343L33.7621 44.6062L34.4115 44.578L34.3875 44.0248L33.7381 44.0529ZM33.7621 44.6062L33.1127 44.6343C33.2574 47.9727 33.5462 51.2986 33.9791 54.6119L34.6236 54.5277L35.2681 54.4435C34.8401 51.1674 34.5545 47.8789 34.4115 44.578L33.7621 44.6062ZM34.6236 54.5277L33.9791 54.6119L34.0508 55.161L34.6953 55.0768L35.3399 54.9926L35.2681 54.4435L34.6236 54.5277ZM34.6953 55.0768L34.0508 55.161L34.1225 55.7101L34.7671 55.6259L35.4116 55.5417L35.3399 54.9926L34.6953 55.0768ZM34.7671 55.6259L34.1225 55.7101C34.5503 58.9842 34.8202 62.2712 34.9323 65.5713L35.5819 65.5492L36.2315 65.5271C36.1181 62.1855 35.8447 58.857 35.4116 55.5417L34.7671 55.6259ZM35.5819 65.5492L34.9323 65.5713L34.9511 66.1247L35.6007 66.1027L36.2503 66.0806L36.2315 65.5271L35.5819 65.5492ZM35.6007 66.1027L34.9511 66.1247L34.9699 66.6782L35.6195 66.6562L36.2691 66.6341L36.2503 66.0806L35.6007 66.1027ZM35.6195 66.6562L34.9699 66.6782C35.0832 70.0163 35.3288 73.3435 35.7067 76.6598L36.3525 76.5862L36.9983 76.5126C36.6244 73.2306 36.3813 69.9377 36.2691 66.6341L35.6195 66.6562ZM36.3525 76.5862L35.7067 76.6598L35.7693 77.2096L36.4152 77.1361L37.061 77.0625L36.9983 76.5126L36.3525 76.5862ZM36.4152 77.1361L35.7693 77.2096L35.832 77.7595L36.4778 77.6859L37.1236 77.6123L37.061 77.0625L36.4152 77.1361ZM36.4778 77.6859L35.832 77.7595C36.2066 81.0473 36.4942 84.3423 36.6949 87.6444L37.3437 87.605L37.9925 87.5656C37.7904 84.2406 37.5008 80.9229 37.1236 77.6123L36.4778 77.6859ZM37.3437 87.605L36.6949 87.6444L36.7284 88.1967L37.3772 88.1573L38.026 88.1179L37.9925 87.5656L37.3437 87.605ZM37.3772 88.1573L36.7284 88.1967L36.762 88.749L37.4108 88.7095L38.0596 88.6701L38.026 88.1179L37.3772 88.1573ZM37.4108 88.7095L36.762 88.749C36.9647 92.0849 37.3391 95.4065 37.8852 98.714L38.5266 98.6081L39.1679 98.5022C38.629 95.2387 38.2596 91.9613 38.0596 88.6701L37.4108 88.7095ZM38.5266 98.6081L37.8852 98.714L37.9757 99.2615L38.617 99.1556L39.2583 99.0497L39.1679 98.5022L38.5266 98.6081ZM38.617 99.1556L37.9757 99.2615L38.0661 99.8091L38.7074 99.7032L39.3487 99.5973L39.2583 99.0497L38.617 99.1556ZM38.7074 99.7032L38.0661 99.8091C38.6035 103.064 38.9062 106.338 38.9741 109.632L39.624 109.618L40.2738 109.605C40.2046 106.249 39.8962 102.913 39.3487 99.5973L38.7074 99.7032ZM39.624 109.618L38.9741 109.632L38.9855 110.186L39.6354 110.172L40.2853 110.159L40.2738 109.605L39.624 109.618ZM39.6354 110.172L38.9855 110.186L38.997 110.74L39.6468 110.726L40.2967 110.713L40.2853 110.159L39.6354 110.172ZM39.6468 110.726L38.997 110.74C39.0658 114.08 39.2535 117.41 39.5599 120.73L40.2071 120.671L40.8544 120.611C40.5508 117.321 40.3649 114.022 40.2967 110.713L39.6468 110.726ZM40.2071 120.671L39.5599 120.73L39.6107 121.281L40.2579 121.221L40.9052 121.162L40.8544 120.611L40.2071 120.671ZM40.2579 121.221L39.6107 121.281L39.6615 121.832L40.3088 121.772L40.956 121.713L40.9052 121.162L40.2579 121.221ZM40.3088 121.772L39.6615 121.832C39.814 123.485 39.9316 124.735 40.0142 125.581C40.0555 126.004 40.0882 126.328 40.1123 126.552C40.1243 126.664 40.1344 126.753 40.1426 126.818C40.1466 126.851 40.1507 126.881 40.1546 126.907C40.1548 126.908 40.1642 126.979 40.1868 127.047L40.8034 126.841L41.4201 126.636C41.4396 126.694 41.4448 126.744 41.4397 126.71C41.4383 126.701 41.436 126.685 41.4325 126.657C41.4258 126.603 41.4166 126.522 41.4048 126.413C41.3815 126.196 41.3493 125.877 41.3081 125.455C41.2258 124.612 41.1085 123.365 40.956 121.713L40.3088 121.772ZM40.8034 126.841L40.1868 127.047L40.1909 127.059L40.8076 126.854L41.4242 126.648L41.4201 126.636L40.8034 126.841ZM40.8076 126.854L40.4221 127.377L40.4553 127.402L40.8407 126.878L41.2262 126.355L41.193 126.33L40.8076 126.854ZM40.8407 126.878L40.1929 126.932L40.2011 127.031L40.8489 126.978L41.4967 126.925L41.4885 126.825L40.8407 126.878Z" fill="#403872"/>
<path d="M192.775 98C192.775 98.5523 193.222 99 193.775 99C194.327 99 194.775 98.5523 194.775 98H193.775H192.775ZM193.775 97.9L192.775 97.8785L192.775 97.8892V97.9H193.775ZM193.811 89.75L192.811 89.7791L193.811 89.75ZM193.619 82L194.158 81.1581L193.912 81H193.619V82ZM193.775 82.1L193.235 82.9419L194.775 83.9288V82.1H193.775ZM194.775 82C194.775 81.4477 194.327 81 193.775 81C193.222 81 192.775 81.4477 192.775 82H193.775H194.775ZM202.101 91C202.653 91 203.101 90.5523 203.101 90C203.101 89.4477 202.653 89 202.101 89V90V91ZM202.001 90V89H201.983L201.966 89.0006L202.001 90ZM188.351 90.1717L188.333 91.1715L188.351 90.1717ZM185.351 90.061L184.974 90.9873L185.042 91.015L185.114 91.0325L185.351 90.061ZM185.201 90L185.578 89.0738L185.397 89H185.201V90ZM185.101 89C184.549 89 184.101 89.4477 184.101 90C184.101 90.5523 184.549 91 185.101 91V90V89ZM193.775 98H194.775V97.9H193.775H192.775V98H193.775ZM193.775 97.9L194.774 97.9215C194.852 94.3174 194.864 91.5803 194.81 89.7209L193.811 89.75L192.811 89.7791C192.864 91.5864 192.852 94.2826 192.775 97.8785L193.775 97.9ZM193.811 89.75L194.81 89.7209C194.757 87.8802 194.685 86.122 194.595 84.4465L193.597 84.5L192.598 84.5535C192.687 86.2113 192.758 87.9531 192.811 89.7791L193.811 89.75ZM193.597 84.5L194.595 84.4465C194.551 83.6177 194.532 83.0181 194.535 82.6338C194.537 82.435 194.544 82.3293 194.55 82.2887C194.554 82.2587 194.55 82.3122 194.518 82.3969C194.503 82.4361 194.456 82.5508 194.35 82.6714C194.233 82.8039 193.987 83 193.619 83V82V81C193.237 81 192.979 81.2026 192.85 81.3481C192.732 81.4817 192.675 81.616 192.65 81.6812C192.598 81.818 192.577 81.9497 192.568 82.0238C192.545 82.1916 192.537 82.3983 192.535 82.6162C192.531 83.0652 192.553 83.7156 192.598 84.5535L193.597 84.5ZM193.619 82L193.079 82.8419L193.235 82.9419L193.775 82.1L194.314 81.2581L194.158 81.1581L193.619 82ZM193.775 82.1H194.775V82H193.775H192.775V82.1H193.775ZM202.101 90V89H202.001V90V91H202.101V90ZM202.001 90L201.966 89.0006C198.368 89.1278 195.664 89.1961 193.846 89.2061L193.851 90.2061L193.857 91.2061C195.705 91.1959 198.434 91.1267 202.036 90.9994L202.001 90ZM193.851 90.2061L193.846 89.2061C192.02 89.2162 190.195 89.2048 188.369 89.1719L188.351 90.1717L188.333 91.1715C190.174 91.2048 192.015 91.2163 193.857 91.2061L193.851 90.2061ZM188.351 90.1717L188.369 89.1719C187.455 89.1554 186.754 89.138 186.263 89.1199C186.017 89.1108 185.83 89.1018 185.699 89.093C185.53 89.0818 185.529 89.0751 185.588 89.0896L185.351 90.061L185.114 91.0325C185.256 91.0673 185.443 91.0805 185.566 91.0886C185.726 91.0993 185.935 91.1092 186.189 91.1185C186.699 91.1373 187.414 91.155 188.333 91.1715L188.351 90.1717ZM185.351 90.061L185.728 89.1348L185.578 89.0738L185.201 90L184.824 90.9262L184.974 90.9873L185.351 90.061ZM185.201 90V89H185.101V90V91H185.201V90Z" fill="#403872"/>
<path d="M266.367 23.4876C268.867 24.357 271.21 25.5535 273.334 27.0422C273.512 27.1668 273.759 27.1249 273.884 26.9453C274.01 26.7666 273.967 26.5198 273.787 26.3942C271.605 24.8637 269.195 23.634 266.627 22.7405C266.42 22.6696 266.195 22.7776 266.123 22.9841C266.052 23.1903 266.161 23.416 266.367 23.4876Z" fill="#403872"/>
<path d="M270.055 19.7277C271.685 20.7867 273.555 23.8864 274.126 25.5557C274.198 25.766 274.426 25.8712 274.628 25.8018C274.835 25.7308 274.946 25.5061 274.874 25.299C274.253 23.4821 272.283 20.2308 270.485 19.0641C270.304 18.9455 270.056 18.9957 269.938 19.1804C269.818 19.3639 269.871 19.6084 270.054 19.7277H270.055Z" fill="#403872"/>
<path d="M272.75 27.8925C270.877 27.552 268.923 27.4075 266.967 27.4581C266.748 27.4641 266.575 27.646 266.582 27.8647C266.588 28.0833 266.79 28.2537 266.987 28.2495C270.431 28.1568 272.407 28.6775 272.679 28.6775C273.158 28.6775 273.223 27.9788 272.75 27.8925Z" fill="#403872"/>
<path opacity="0.5" d="M279.395 40.786C279.096 40.786 278.812 40.744 278.541 40.66C278.261 40.5853 278.028 40.4687 277.841 40.31L278.191 39.554C278.49 39.806 278.872 39.932 279.339 39.932C279.731 39.932 280.03 39.8153 280.235 39.582C280.45 39.3487 280.557 39.0033 280.557 38.546V30.65H281.551V38.546C281.551 39.2273 281.364 39.7687 280.991 40.17C280.627 40.5807 280.095 40.786 279.395 40.786ZM281.061 29.026C280.856 29.026 280.683 28.956 280.543 28.816C280.403 28.676 280.333 28.508 280.333 28.312C280.333 28.116 280.403 27.9527 280.543 27.822C280.683 27.682 280.856 27.612 281.061 27.612C281.266 27.612 281.439 27.6773 281.579 27.808C281.719 27.9387 281.789 28.102 281.789 28.298C281.789 28.5033 281.719 28.676 281.579 28.816C281.448 28.956 281.276 29.026 281.061 29.026ZM287.325 38.07C286.616 38.07 285.976 37.9113 285.407 37.594C284.847 37.2673 284.404 36.824 284.077 36.264C283.75 35.6947 283.587 35.046 283.587 34.318C283.587 33.5807 283.75 32.932 284.077 32.372C284.404 31.812 284.847 31.3733 285.407 31.056C285.967 30.7387 286.606 30.58 287.325 30.58C288.053 30.58 288.697 30.7387 289.257 31.056C289.826 31.3733 290.27 31.812 290.587 32.372C290.914 32.932 291.077 33.5807 291.077 34.318C291.077 35.046 290.914 35.6947 290.587 36.264C290.27 36.824 289.826 37.2673 289.257 37.594C288.688 37.9113 288.044 38.07 287.325 38.07ZM287.325 37.188C287.857 37.188 288.328 37.0713 288.739 36.838C289.15 36.5953 289.472 36.2593 289.705 35.83C289.948 35.3913 290.069 34.8873 290.069 34.318C290.069 33.7393 289.948 33.2353 289.705 32.806C289.472 32.3767 289.15 32.0453 288.739 31.812C288.328 31.5693 287.862 31.448 287.339 31.448C286.816 31.448 286.35 31.5693 285.939 31.812C285.528 32.0453 285.202 32.3767 284.959 32.806C284.716 33.2353 284.595 33.7393 284.595 34.318C284.595 34.8873 284.716 35.3913 284.959 35.83C285.202 36.2593 285.528 36.5953 285.939 36.838C286.35 37.0713 286.812 37.188 287.325 37.188ZM296.9 38.07C296.256 38.07 295.678 37.9253 295.164 37.636C294.651 37.3373 294.245 36.908 293.946 36.348C293.648 35.788 293.498 35.1113 293.498 34.318C293.498 33.5153 293.648 32.8387 293.946 32.288C294.254 31.728 294.665 31.3033 295.178 31.014C295.692 30.7247 296.266 30.58 296.9 30.58C297.6 30.58 298.226 30.7387 298.776 31.056C299.336 31.364 299.775 31.798 300.092 32.358C300.41 32.918 300.568 33.5713 300.568 34.318C300.568 35.0553 300.41 35.7087 300.092 36.278C299.775 36.838 299.336 37.2767 298.776 37.594C298.226 37.9113 297.6 38.07 296.9 38.07ZM293.106 38V27.612H294.1V32.82L293.96 34.304L294.058 35.788V38H293.106ZM296.83 37.188C297.353 37.188 297.82 37.0713 298.23 36.838C298.641 36.5953 298.968 36.2593 299.21 35.83C299.453 35.3913 299.574 34.8873 299.574 34.318C299.574 33.7393 299.453 33.2353 299.21 32.806C298.968 32.3767 298.641 32.0453 298.23 31.812C297.82 31.5693 297.353 31.448 296.83 31.448C296.308 31.448 295.836 31.5693 295.416 31.812C295.006 32.0453 294.679 32.3767 294.436 32.806C294.203 33.2353 294.086 33.7393 294.086 34.318C294.086 34.8873 294.203 35.3913 294.436 35.83C294.679 36.2593 295.006 36.5953 295.416 36.838C295.836 37.0713 296.308 37.188 296.83 37.188ZM306.259 38V27.612H307.253V38H306.259ZM310.018 38V30.65H311.012V38H310.018ZM310.522 29.026C310.317 29.026 310.144 28.956 310.004 28.816C309.864 28.676 309.794 28.508 309.794 28.312C309.794 28.116 309.864 27.9527 310.004 27.822C310.144 27.682 310.317 27.612 310.522 27.612C310.728 27.612 310.9 27.6773 311.04 27.808C311.18 27.9387 311.25 28.102 311.25 28.298C311.25 28.5033 311.18 28.676 311.04 28.816C310.91 28.956 310.737 29.026 310.522 29.026ZM317.53 30.58C318.127 30.58 318.65 30.6967 319.098 30.93C319.555 31.154 319.91 31.4993 320.162 31.966C320.423 32.4327 320.554 33.0207 320.554 33.73V38H319.56V33.828C319.56 33.0533 319.364 32.47 318.972 32.078C318.589 31.6767 318.048 31.476 317.348 31.476C316.825 31.476 316.368 31.5833 315.976 31.798C315.593 32.0033 315.295 32.3067 315.08 32.708C314.875 33.1 314.772 33.576 314.772 34.136V38H313.778V30.65H314.73V32.666L314.576 32.288C314.809 31.756 315.183 31.3407 315.696 31.042C316.209 30.734 316.821 30.58 317.53 30.58ZM324.023 36.096L324.051 34.822L328.629 30.65H329.847L326.613 33.744L326.053 34.22L324.023 36.096ZM323.239 38V27.612H324.233V38H323.239ZM328.937 38L325.871 34.178L326.515 33.408L330.155 38H328.937Z" fill="black"/>
<rect x="266.101" y="84" width="77" height="20" rx="2" fill="#D9D9D9"/>
<path d="M253.739 122.124C253.739 122.124 253.459 120.784 252.939 118.268C252.502 115.732 251.914 111.992 251.531 107.199C251.134 102.407 251.032 96.5611 251.1 89.8746C251.134 83.1813 251.531 75.6539 251.647 67.4565C251.688 65.3985 251.661 63.3406 251.688 61.1597C251.715 60.0658 251.77 58.9377 252.009 57.7754C252.235 56.62 252.727 55.403 253.582 54.4253C254.423 53.4408 255.537 52.7503 256.672 52.3059C256.952 52.1897 257.246 52.1008 257.533 52.0051L257.786 51.923L257.992 51.8683L258.402 51.7658C258.949 51.629 259.496 51.4786 260.111 51.3966C262.497 50.9795 264.828 50.8565 267.215 50.8223C276.636 50.8291 286.57 50.8428 296.846 50.8496C299.416 50.8496 302.001 50.8633 304.612 50.8701C305.918 50.8701 307.224 50.8701 308.537 50.8701H310.513L312.502 50.9111C315.148 50.9658 317.801 51.0274 320.474 51.0821C323.147 51.1299 325.834 51.3145 328.528 51.3966C331.228 51.506 333.929 51.6017 336.643 51.6701C339.358 51.7384 342.072 51.7042 344.813 51.8273L346.864 51.882C347.548 51.9299 348.232 51.9982 348.922 52.0597C350.29 52.1965 351.684 52.2649 353.031 52.5247C354.406 52.7708 355.78 53.0921 357.092 53.6869C357.756 53.9672 358.371 54.3638 358.959 54.8013C359.52 55.2731 360.06 55.7927 360.47 56.408C362.206 58.8351 362.446 61.8502 362.794 64.4892C363.088 67.2445 363.266 70.0066 363.321 72.7414C363.451 78.2314 363.252 83.6667 363.321 89.0405C363.341 91.7343 363.355 94.4212 363.376 97.0944C363.376 99.7676 363.307 102.448 363.273 105.094C363.253 106.42 363.232 107.746 363.211 109.059C363.211 109.688 363.177 110.372 363.184 110.973C363.191 111.63 363.205 112.279 363.211 112.929C363.225 114.241 363.225 115.581 363.095 116.935C362.959 118.289 362.719 119.684 362.049 121.044C361.68 121.707 361.229 122.384 360.559 122.883L360.313 123.075L360.19 123.164C360.025 123.266 360.08 123.225 360.019 123.259L359.595 123.485L358.754 123.936C358.494 124.093 358.152 124.223 357.831 124.346L356.853 124.729C356.204 124.982 355.575 125.105 354.932 125.297C352.375 125.932 349.832 126.172 347.377 126.438C346.769 126.507 346.16 126.575 345.559 126.643L344.615 126.746L343.699 126.828C342.482 126.944 341.272 127.054 340.069 127.163C338.872 127.293 337.641 127.293 336.445 127.361C335.242 127.416 334.045 127.464 332.862 127.519C331.687 127.56 330.524 127.607 329.362 127.649C328.781 127.669 328.207 127.69 327.632 127.71C327.065 127.751 326.497 127.785 325.93 127.826C324.795 127.901 323.674 127.977 322.559 128.052C321.376 128.141 320.303 128.175 319.182 128.236C318.074 128.291 316.98 128.346 315.893 128.401C314.806 128.455 313.705 128.401 312.625 128.401C311.545 128.387 310.472 128.38 309.412 128.366C308.352 128.366 307.32 128.284 306.287 128.25C304.23 128.154 302.213 128.072 300.25 127.956C299.266 127.901 298.302 127.847 297.338 127.799C296.859 127.772 296.381 127.744 295.909 127.717C295.444 127.717 294.986 127.703 294.528 127.703C293.591 127.69 292.668 127.683 291.752 127.669C291.294 127.669 290.843 127.655 290.392 127.649C289.947 127.662 289.503 127.676 289.065 127.69C287.301 127.737 285.592 127.792 283.931 127.84C282.256 127.874 280.635 127.949 279.07 127.949C277.497 127.908 275.986 127.874 274.53 127.84C273.094 127.799 271.706 127.71 270.387 127.662C269.067 127.621 267.809 127.58 266.613 127.539C264.213 127.464 262.066 127.3 260.2 127.122C258.327 126.896 256.727 126.404 255.653 125.55C254.669 124.633 254.218 123.724 253.958 123.095C253.835 122.774 253.787 122.5 253.828 122.302C253.869 122.09 254.012 122.029 253.992 122.022C253.992 122.022 253.978 122.022 253.978 122.029C253.978 122.029 253.978 122.035 253.978 122.042L254.115 122.186C254.115 122.186 254.06 122.213 254.04 122.343C254.019 122.473 254.06 122.712 254.19 123.006C254.45 123.574 254.963 124.463 255.906 125.256C256.898 125.973 258.436 126.411 260.255 126.555C262.101 126.657 264.227 126.746 266.62 126.726C267.823 126.726 269.088 126.726 270.414 126.719C271.741 126.732 273.122 126.78 274.571 126.78C276.007 126.78 277.497 126.773 279.042 126.767C280.594 126.726 282.201 126.602 283.862 126.52C285.537 126.425 287.267 126.329 289.052 126.226C289.496 126.199 289.947 126.172 290.398 126.151C290.85 126.151 291.301 126.144 291.759 126.138C292.668 126.138 293.598 126.131 294.535 126.124C295.013 126.124 295.492 126.124 295.977 126.124C296.449 126.144 296.928 126.158 297.406 126.179C298.363 126.213 299.334 126.254 300.319 126.288C302.288 126.37 304.291 126.418 306.335 126.479C307.354 126.5 308.4 126.561 309.432 126.548C310.465 126.548 311.511 126.534 312.571 126.527C313.63 126.507 314.683 126.548 315.77 126.473C316.857 126.397 317.951 126.322 319.059 126.254C321.267 126.097 323.516 125.932 325.793 125.768C326.367 125.727 326.949 125.686 327.523 125.638C328.097 125.611 328.678 125.584 329.259 125.563C330.422 125.509 331.591 125.461 332.774 125.406C333.936 125.344 335.112 125.29 336.295 125.228C337.477 125.146 338.653 125.146 339.857 125.003C341.06 124.893 342.27 124.777 343.487 124.668L344.403 124.586L344.827 124.545L345.292 124.49C345.907 124.421 346.523 124.353 347.145 124.285C349.606 124.025 352.054 123.786 354.399 123.205C354.966 123.034 355.581 122.911 356.108 122.699L356.908 122.398C357.174 122.295 357.441 122.213 357.728 122.049L358.576 121.605L359 121.379C359 121.379 359.144 121.304 359.034 121.359L359.102 121.304L359.239 121.201C359.615 120.948 359.896 120.531 360.155 120.08C360.634 119.137 360.88 117.947 361.01 116.737C361.14 115.513 361.16 114.248 361.154 112.956C361.154 112.3 361.154 111.65 361.147 110.994C361.147 110.29 361.181 109.661 361.195 108.977C361.229 107.671 361.263 106.358 361.29 105.046C361.345 102.414 361.441 99.7745 361.468 97.1012C361.482 94.428 361.495 91.7411 361.509 89.0474C361.53 83.6394 361.817 78.2041 361.783 72.7756C361.796 70.0545 361.687 67.3539 361.468 64.6602L361.256 62.6159L361.201 62.1032C361.188 61.9596 361.154 61.7818 361.126 61.6246C361.065 61.2964 361.037 60.9614 360.955 60.6469C360.689 59.3616 360.258 58.1104 359.547 57.0575C359.205 56.5174 358.754 56.073 358.282 55.6491C357.776 55.2594 357.25 54.8971 356.655 54.6304C355.486 54.0698 354.173 53.7211 352.867 53.4613C351.534 53.1742 350.187 53.0853 348.84 52.9212C348.163 52.846 347.493 52.7639 346.817 52.7024L344.779 52.6067C342.072 52.4563 339.33 52.4768 336.616 52.3811C333.902 52.299 331.187 52.176 328.501 52.0461C327.154 51.9845 325.814 51.9298 324.474 51.8683C323.134 51.8205 321.8 51.7453 320.46 51.7453C317.787 51.7179 315.128 51.6906 312.489 51.6632L310.519 51.6495L308.544 51.6906C307.231 51.7179 305.925 51.7521 304.619 51.7794C302.014 51.8478 299.423 51.9093 296.853 51.9709C291.718 52.0939 286.666 52.2238 281.722 52.3401C279.254 52.4016 276.807 52.4563 274.393 52.5178C271.98 52.5588 269.601 52.593 267.249 52.634C264.931 52.7024 262.606 52.8255 260.487 53.2084C259.967 53.2767 259.407 53.4271 258.86 53.5639L258.45 53.6664L258.245 53.7211C258.245 53.7211 258.142 53.7553 258.101 53.7758C257.855 53.8647 257.602 53.9399 257.369 54.0356C256.412 54.4185 255.571 54.9312 254.97 55.6354C253.719 57.0097 253.527 59.1633 253.452 61.2212C253.404 63.3133 253.411 65.4601 253.349 67.5043C253.144 75.7428 252.713 83.2634 252.461 89.9225C252.201 96.5816 252.214 102.393 252.413 107.165C252.597 111.944 253.048 115.677 253.363 118.214C253.753 120.75 253.958 122.104 253.958 122.104C253.965 122.158 253.93 122.213 253.876 122.22C253.821 122.227 253.773 122.193 253.76 122.138L253.739 122.124Z" fill="#403872"/>
<path d="M259.92 120.293C256.487 103.488 258.785 85.6161 258.785 68.4487C258.785 64.2098 259.092 61.3041 263.543 59.9572C267.187 58.8565 272.11 59.0069 275.918 58.9727C287.055 58.8702 298.206 58.5967 309.357 58.5967C315.825 58.5967 322.32 58.8223 328.74 59.1642C334.155 59.4513 339.686 59.13 345.012 59.9094C350.344 60.6888 353.113 62.2271 353.927 67.888C354.925 74.8412 354.508 82.5122 354.447 89.5542C354.385 96.0766 354.597 102.77 354.255 109.306C354.091 112.478 354.932 118.604 351.999 120.436C348.266 122.761 343.405 122.823 339.166 123.363C332.5 124.217 325.732 123.971 319.018 124.634C311.634 125.366 303.949 124.805 296.572 124.491C290.18 124.217 283.849 125.168 277.456 124.826C273.58 124.621 269.635 124.785 265.765 124.45C264.391 124.327 262.723 124.04 261.608 123.178C260.829 122.576 259.605 120.676 260.104 120.3" fill="#F6F5FA"/>
<rect x="265.101" y="69" width="80" height="23" rx="5" fill="#6374FF"/>
<path d="M288.538 99H288.534C281.481 99.0764 274.41 99.1963 267.515 99.3564C267.297 99.3615 267.124 99.5428 267.129 99.7614C267.134 99.9769 267.31 100.148 267.524 100.148H267.534C274.426 99.9877 281.493 99.8676 288.542 99.7915C288.76 99.7889 288.935 99.6102 288.933 99.3916C288.932 99.1742 288.754 99 288.538 99Z" fill="black"/>
<path d="M302.296 106.895H302.295C293.87 106.921 285.441 107.007 277.24 107.15C277.022 107.154 276.848 107.333 276.852 107.552C276.856 107.768 277.032 107.941 277.248 107.941C278.329 107.941 287.539 107.732 302.297 107.686C302.515 107.685 302.693 107.508 302.692 107.289C302.691 107.071 302.514 106.895 302.296 106.895V106.895Z" fill="black"/>
<path d="M267.497 108.137C268.31 108.137 265.762 108.159 274.109 107.997C274.608 107.988 274.651 107.194 274.095 107.206C271.887 107.249 269.685 107.295 267.488 107.346C267.269 107.351 267.096 107.533 267.101 107.751C267.106 107.967 267.282 108.138 267.497 108.138L267.497 108.137Z" fill="black"/>
<path d="M275.537 78.348C276.365 78.9 276.779 79.752 276.779 80.904C276.779 82.464 276.257 83.526 275.213 84.09L274.529 84.198C274.121 84.198 273.689 84 273.233 83.604H273.107C272.735 84.084 272.387 84.324 272.063 84.324C271.211 84.324 270.719 83.52 270.587 81.912V80.94C270.671 79.416 270.989 78.654 271.541 78.654C271.841 78.654 272.015 78.84 272.063 79.212C271.787 79.692 271.649 80.364 271.649 81.228V81.57C271.697 82.65 271.811 83.19 271.991 83.19C272.171 83.19 272.357 82.878 272.549 82.254L272.513 81.012C272.513 80.184 272.711 79.77 273.107 79.77C273.563 79.77 273.791 80.22 273.791 81.12H273.863L273.683 82.254C273.887 82.854 274.169 83.154 274.529 83.154H274.637C275.165 83.154 275.507 82.59 275.663 81.462V80.454C275.663 80.07 275.435 79.596 274.979 79.032L274.907 78.87C274.907 78.618 275.117 78.444 275.537 78.348ZM282.744 78.348C283.572 78.9 283.986 79.752 283.986 80.904C283.986 82.464 283.464 83.526 282.42 84.09L281.736 84.198C281.328 84.198 280.896 84 280.44 83.604H280.314C279.942 84.084 279.594 84.324 279.27 84.324C278.418 84.324 277.926 83.52 277.794 81.912V80.94C277.878 79.416 278.196 78.654 278.748 78.654C279.048 78.654 279.222 78.84 279.27 79.212C278.994 79.692 278.856 80.364 278.856 81.228V81.57C278.904 82.65 279.018 83.19 279.198 83.19C279.378 83.19 279.564 82.878 279.756 82.254L279.72 81.012C279.72 80.184 279.918 79.77 280.314 79.77C280.77 79.77 280.998 80.22 280.998 81.12H281.07L280.89 82.254C281.094 82.854 281.376 83.154 281.736 83.154H281.844C282.372 83.154 282.714 82.59 282.87 81.462V80.454C282.87 80.07 282.642 79.596 282.186 79.032L282.114 78.87C282.114 78.618 282.324 78.444 282.744 78.348ZM289.951 78.348C290.779 78.9 291.193 79.752 291.193 80.904C291.193 82.464 290.671 83.526 289.627 84.09L288.943 84.198C288.535 84.198 288.103 84 287.647 83.604H287.521C287.149 84.084 286.801 84.324 286.477 84.324C285.625 84.324 285.133 83.52 285.001 81.912V80.94C285.085 79.416 285.403 78.654 285.955 78.654C286.255 78.654 286.429 78.84 286.477 79.212C286.201 79.692 286.063 80.364 286.063 81.228V81.57C286.111 82.65 286.225 83.19 286.405 83.19C286.585 83.19 286.771 82.878 286.963 82.254L286.927 81.012C286.927 80.184 287.125 79.77 287.521 79.77C287.977 79.77 288.205 80.22 288.205 81.12H288.277L288.097 82.254C288.301 82.854 288.583 83.154 288.943 83.154H289.051C289.579 83.154 289.921 82.59 290.077 81.462V80.454C290.077 80.07 289.849 79.596 289.393 79.032L289.321 78.87C289.321 78.618 289.531 78.444 289.951 78.348ZM293.522 82.938C293.774 82.938 293.924 83.142 293.972 83.55C293.9 83.97 293.69 84.18 293.342 84.18C293.102 84.18 292.934 83.97 292.838 83.55C292.982 83.142 293.21 82.938 293.522 82.938ZM296.27 77.844C296.642 77.964 296.828 78.24 296.828 78.672C296.828 78.924 296.66 79.074 296.324 79.122H296.27C295.922 79.122 295.736 78.894 295.712 78.438V78.33C295.712 78.018 295.898 77.856 296.27 77.844ZM296.378 79.752C296.546 79.752 296.738 79.914 296.954 80.238C296.834 80.562 296.774 81 296.774 81.552L297.224 86.088V86.61C297.224 88.182 296.846 89.172 296.09 89.58L295.712 89.652C294.884 89.652 294.248 88.824 293.804 87.168L293.678 86.214V86.16C293.678 85.74 293.87 85.53 294.254 85.53C294.578 85.53 294.74 85.86 294.74 86.52C294.74 87.192 295.028 87.858 295.604 88.518L295.748 88.572C296.024 88.08 296.162 87.504 296.162 86.844V86.088L295.712 81.588C295.712 80.364 295.934 79.752 296.378 79.752ZM300.868 77.214C301.756 77.214 302.428 77.874 302.884 79.194L302.956 79.572C302.956 80.856 302.356 82.17 301.156 83.514C300.676 83.958 300.19 84.18 299.698 84.18C298.978 84.18 298.468 83.766 298.168 82.938C298.06 82.554 298.006 82.218 298.006 81.93V81.714C298.006 79.818 298.696 78.378 300.076 77.394C300.316 77.274 300.58 77.214 300.868 77.214ZM299.068 81.894C299.068 82.71 299.278 83.118 299.698 83.118C300.574 83.118 301.3 81.996 301.876 79.752V79.41C301.672 78.666 301.294 78.294 300.742 78.294C300.526 78.294 300.418 78.444 300.418 78.744C300.418 78.948 300.178 79.11 299.698 79.23C299.278 79.938 299.068 80.826 299.068 81.894ZM303.898 75.45C304.522 75.45 304.924 76.674 305.104 79.122L305.212 79.68C305.764 78.552 306.214 77.988 306.562 77.988C306.562 77.94 306.688 77.904 306.94 77.88H307.012C307.804 77.88 308.308 78.498 308.524 79.734V79.788C308.524 80.844 307.996 82.008 306.94 83.28C306.496 83.76 306.01 84 305.482 84C304.882 83.868 304.582 83.568 304.582 83.1L303.682 76.638L303.412 75.972C303.412 75.756 303.574 75.582 303.898 75.45ZM305.77 82.758H305.824C306.448 82.506 306.994 81.648 307.462 80.184V79.5C307.354 79.128 307.216 78.942 307.048 78.942H306.904C306.376 79.254 305.998 80.526 305.77 82.758ZM310.889 82.938C311.141 82.938 311.291 83.142 311.339 83.55C311.267 83.97 311.057 84.18 310.709 84.18C310.469 84.18 310.301 83.97 310.205 83.55C310.349 83.142 310.577 82.938 310.889 82.938ZM314.159 82.938C314.411 82.938 314.561 83.142 314.609 83.55C314.537 83.97 314.327 84.18 313.979 84.18C313.739 84.18 313.571 83.97 313.475 83.55C313.619 83.142 313.847 82.938 314.159 82.938ZM317.428 82.938C317.68 82.938 317.83 83.142 317.878 83.55C317.806 83.97 317.596 84.18 317.248 84.18C317.008 84.18 316.84 83.97 316.744 83.55C316.888 83.142 317.116 82.938 317.428 82.938Z" fill="#F6F5FA"/>
<path d="M238.903 132.503C232.558 132.257 235.129 125.741 239.539 123.772C244.516 121.55 250.703 121.748 256.023 121.448C271.898 120.552 287.985 120.436 303.915 119.718C311.996 119.356 320.057 120.087 328.138 120.361C334.907 120.593 341.73 120.361 348.505 120.361C354.447 120.361 360.101 120.764 365.898 121.824C370.076 122.589 375.456 122.425 376.079 127.731C376.605 132.236 367.765 132.147 364.449 132.448C358.255 133.016 351.992 133.146 345.736 133.146C334.25 133.146 322.983 133.474 311.668 134C297.4 134.663 286.296 133.781 271.85 133.146C263.222 132.763 251.75 133.316 243.463 132.489C241.98 132.339 240.4 132.489 238.91 132.489" fill="#F7F6FB"/>
<path d="M238.903 132.503C232.558 132.257 235.129 125.741 239.539 123.772C244.516 121.55 250.703 121.748 256.023 121.448C271.898 120.552 287.985 120.436 303.915 119.718C311.996 119.356 320.057 120.087 328.138 120.361C334.907 120.593 341.73 120.361 348.505 120.361C354.447 120.361 360.101 120.764 365.898 121.824C370.076 122.589 375.456 122.425 376.079 127.731C376.605 132.236 367.765 132.147 364.449 132.448C358.255 133.016 351.992 133.146 345.736 133.146C334.25 133.146 322.983 133.474 311.668 134C297.4 134.663 286.296 133.781 271.85 133.146C263.222 132.763 251.75 133.316 243.463 132.489C241.98 132.339 240.4 132.489 238.91 132.489" stroke="#403872" stroke-width="1.4" stroke-linecap="round" stroke-linejoin="round"/>
<path d="M337.354 125.028C336.168 124.863 334.304 125.414 334.117 127.033C333.863 129.228 336.687 129.14 338.032 128.849C341.511 128.096 340.133 125.287 337.354 125.23" fill="#403872"/>
<path d="M326.354 125.028C325.168 124.863 323.304 125.414 323.117 127.033C322.863 129.228 325.687 129.14 327.032 128.849C330.511 128.096 329.133 125.287 326.354 125.23" fill="#403872"/>
</svg>
