<?xml version="1.0" encoding="UTF-8"?>
<svg id="Layer_1" xmlns="http://www.w3.org/2000/svg" version="1.1" viewBox="0 0 2000 2000">
  <!-- Generator: Adobe Illustrator 29.8.1, SVG Export Plug-In . SVG Version: 2.1.1 Build 2)  -->
  <defs>
    <style>
      .st0 {
        fill: #f9b384;
      }

      .st1, .st2, .st3 {
        fill: #6f3428;
      }

      .st4 {
        fill: #dee5f8;
      }

      .st5 {
        opacity: .15;
      }

      .st5, .st6 {
        fill: #102048;
      }

      .st7 {
        opacity: .2;
      }

      .st7, .st8 {
        fill: #acbfee;
      }

      .st9 {
        opacity: .6;
      }

      .st9, .st10 {
        fill: #fff;
      }

      .st11 {
        fill: #1f3c88;
      }

      .st12 {
        fill: #e28b6d;
      }

      .st13 {
        fill: #fbc343;
      }

      .st14, .st2 {
        opacity: .3;
      }

      .st15 {
        fill: #708cd5;
      }

      .st16 {
        fill: #fc8879;
      }

      .st3 {
        opacity: .1;
      }
    </style>
  </defs>
  <rect class="st10" width="2000" height="2000"/>
  <g>
    <g>
      <path class="st13" d="M1784.57,533.07v11.74c3.95,0,8.38,1.07,11.35,9.01,3.25,8.72,3.41,22.47.43,38.74-3.35,18.31-10.56,39.44-20.84,61.09-21.19,44.64-54.14,89.22-93.99,127.51l-5.91-130.43,34.8-48.18h29.33c11.16,0,20.24-9.08,20.24-20.24v-27.47c.17-.27.9-1.21,3.15-2.52,10.67-6.2,17.55-7.5,21.45-7.5v-11.74M1784.56,533.07c-7.51,0-16.64,2.87-27.35,9.09-4.91,2.85-8.99,6.87-8.99,12.54v27.6c0,4.69-3.81,8.5-8.5,8.5h-35.34l-40.71,56.37,7.23,159.57c136.73-118.65,168.88-273.66,113.65-273.66h0Z"/>
      <path class="st13" d="M1363.77,533.07v11.74c3.9,0,10.78,1.3,21.45,7.5,2.24,1.3,2.97,2.25,3.15,2.52v27.47c0,11.16,9.08,20.24,20.24,20.24h29.33l34.8,48.18-5.91,130.43c-39.85-38.29-72.79-82.87-93.99-127.51-10.28-21.65-17.49-42.78-20.84-61.09-2.98-16.26-2.83-30.02.43-38.74,2.96-7.94,7.4-9.01,11.35-9.01v-11.74M1363.77,533.07c-55.22,0-23.08,155.01,113.65,273.66l7.23-159.57-40.71-56.37h-35.34c-4.69,0-8.5-3.81-8.5-8.5v-27.6c0-5.67-4.08-9.69-8.99-12.54-10.7-6.22-19.83-9.09-27.35-9.09h0Z"/>
      <rect class="st1" x="1459.09" y="1089.89" width="230.16" height="119.44"/>
      <path class="st13" d="M1525.83,1019.4h96.67c17.39,0,31.51,14.12,31.51,31.51v38.97h-159.7v-38.97c0-17.39,14.12-31.51,31.51-31.51Z"/>
      <path class="st13" d="M1544.07,975.52h60.18c10.83,0,19.62,8.79,19.62,19.62v24.26h-99.42v-24.26c0-10.83,8.79-19.62,19.62-19.62Z"/>
      <path class="st13" d="M1601.9,963.25l3.1,12.27h-61.65l3.07-12.27c4.1-16.3,4.1-32.73,0-49.02l-3.07-12.28h61.65l-3.1,12.28c-1.35,5.37-2.25,10.75-2.7,16.15-.95,10.98-.05,21.95,2.7,32.88Z"/>
      <path class="st2" d="M1605,901.95l-3.1,12.28c-1.35,5.37-2.25,10.75-2.7,16.15-3.37-22.46-55.85-28.43-55.85-28.43h61.65Z"/>
      <path class="st13" d="M1623.88,858.07v24.25c0,2-.3,3.93-.85,5.75-2.45,8.03-9.93,13.87-18.78,13.87h-60.17c-10.83,0-19.62-8.77-19.62-19.62v-24.25h99.42Z"/>
      <path class="st2" d="M1623.88,858.07v24.25c0,2-.3,3.93-.85,5.75-26.55-24.4-93.98-25.12-98.58-25.15v-4.85h99.42Z"/>
      <path class="st13" d="M1728.58,565.02l-28.5,124.45-31.63,138.12c-4.73,20.68-23.12,35.33-44.32,35.33h-99.93c-21.12,0-39.45-14.55-44.28-35.12-.02-.08-.02-.12-.05-.2l-60.12-262.57c-1.23-5.35,2.17-10.7,7.57-11.75,97.9-19.35,195.8-19.35,293.68,0,5.4,1.05,8.8,6.4,7.57,11.75Z"/>
      <path class="st9" d="M1508.66,640c2.19,17.93-1.4,33.12-8,33.93-6.61.81-13.73-13.08-15.92-31.01-2.19-17.93,1.4-33.12,8-33.93,6.61-.81,13.73,13.08,15.92,31.01Z"/>
      <path class="st3" d="M1700.08,689.47l-31.63,138.12c-4.73,20.68-23.12,35.33-44.32,35.33h-99.93c-21.12,0-39.45-14.55-44.28-35.12,109.83-6.93,182.88-76.55,220.15-138.33Z"/>
      <g class="st14">
        <path class="st1" d="M1543.35,975.52c5.05-1.27,10.18-2.02,15.33-2.56,5.15-.56,10.32-.79,15.49-.88,10.33-.03,20.79.67,30.83,3.44-5.21.14-10.32.13-15.45.16l-15.35.15c-10.24.05-20.47.21-30.85-.31Z"/>
      </g>
      <g class="st14">
        <path class="st1" d="M1524.45,1019.4c16.5-2.24,33.1-3.1,49.7-3.37,8.3-.08,16.62.01,24.93.46,8.3.42,16.64,1.19,24.79,2.92-8.31-.28-16.58-.06-24.85.01l-24.82.36c-16.56.15-33.12.34-49.75-.37Z"/>
      </g>
      <g>
        <path class="st13" d="M1529.48,366.64l10.29,74.08c.6,4.29-5.16,6.27-7.32,2.52l-37.4-64.77c-2.29-3.97-.38-9.04,3.96-10.53l20.88-7.17c4.34-1.49,8.96,1.33,9.59,5.87Z"/>
        <path class="st13" d="M1632.88,322.29l-40.48,127.17c-2.34,7.37-13.13,6.12-13.73-1.59l-10.32-133.06c-.63-8.16,6.35-14.84,14.48-13.9l39.13,4.53c8.13.94,13.4,9.04,10.92,16.84Z"/>
        <path class="st13" d="M1680.14,400.2l-48.29,46.05c-2.8,2.67-7.23-.47-5.64-3.99l27.43-60.83c1.68-3.73,6.35-4.98,9.69-2.62l16.07,11.39c3.34,2.37,3.71,7.18.74,10.01Z"/>
      </g>
    </g>
    <g>
      <g>
        <path class="st6" d="M593.98,776.34c21.67,13.5,44.67-3.96,47.19-18.8,3.75-22.08-16.36-47.5-47.19-28.65,0,0-26.72-31.25-52.68-.31,0,0-44.29,22.29-19.71,61.04,24.51,38.63,55.43-13.99,55.43-13.99l16.96.7Z"/>
        <path class="st12" d="M609.72,786.02c11.88,15.94,17.1,22.22,15.42,27.2-1.67,4.99-13.55,5.39-13.55,5.39l-1.88-32.59Z"/>
        <polygon class="st0" points="591.28 835.26 584.48 852.26 558.18 918.04 515.76 867.81 555.81 808.59 579.71 826.56 591.28 835.26"/>
        <path class="st6" d="M591.28,835.26l-6.8,17c-9.27-9.17-18.3-21.15-21.97-26.45l17.2.75,11.58,8.7Z"/>
        <path class="st0" d="M615.91,826.74c-.37,8.95-2.15,15.93-6.52,19.03-12.57,8.9-58.75-29.05-58.75-29.05l-3.15-53.43,64.93,4.62c.12,8.57,1.05,18.22,1.92,27.75,1,11.12,1.98,22.1,1.58,31.08Z"/>
        <path class="st6" d="M553.51,789.52c15.89,2.97,19.97-14.58,19.97-14.58,17.01-10.42,31.07,13.65,46.37,4.68l2.36-30.72-67.3-3.44-24.26,15.62,6.88,18.75,15.99,9.69Z"/>
        <path class="st0" d="M563.46,789.86c-8.55-9.71-22.36-5.55-23.68,4.87-1.32,10.42,7.29,27.99,21.27,17.8l2.41-22.66Z"/>
        <path class="st16" d="M615.91,826.74c-1.35.4-2.8.6-4.3.6-8.83,0-15.97-7.15-15.97-15.98s7.15-15.95,15.97-15.95c.93,0,1.85.07,2.72.25,1,11.12,1.98,22.1,1.58,31.08Z"/>
        <path class="st6" d="M557.63,796.78c-.5-1.14-1.39-2.08-2.38-2.84-1.01-.74-2.1-1.39-3.27-1.68-1.15-.34-2.33-.36-3.35.1-1.05.42-1.88,1.37-2.64,2.46l-.68-.28c.34-1.38,1.16-2.8,2.57-3.64,1.41-.82,3.15-.85,4.61-.43,1.45.47,2.78,1.22,3.82,2.28,1.03,1.04,1.92,2.35,2.05,3.89l-.72.14Z"/>
      </g>
      <g>
        <path class="st0" d="M619.85,958.05c14.03-16.3,15.42-39.58,20.73-44.36,9.9-8.9,5.38,18.29,5.38,18.29,0,0,6.44-18.31,21.91-22.45,10.13-2.72,11.94,6.71,11.06,14.59-1.46,13.09-5.76,28.07-16.34,36.77-4.5,3.7-10.26,6.53-13.51,11.52-1.84,2.84-3.44,6.05-4.34,9.34l-24.89-23.7Z"/>
        <polygon class="st15" points="617.63 958.59 624.15 949.8 650.66 973.38 643.25 984.08 617.63 958.59"/>
        <path class="st6" d="M533.81,1045.05l84.36-94.04,31.32,30.74c-22.4,50.93-52.07,83.62-99.64,108.61l-16.04-45.3Z"/>
        <path class="st12" d="M653.85,931.22c1.67-.34,3.28.05,4.77.52,1.5.47,2.89,1.17,4.23,1.93,1.34.77,2.59,1.66,3.76,2.67,1.15,1.08,2.3,1.98,3.03,3.78l-.91.35c-.83-.78-2.28-1.59-3.43-2.37-1.23-.78-2.46-1.55-3.71-2.29-1.24-.75-2.51-1.45-3.77-2.13-1.28-.63-2.57-1.22-3.91-1.5l-.05-.98Z"/>
        <path class="st12" d="M645.77,936.93c1.7.66,3.41,1.64,4.61,3.29,1.22,1.63,1.67,3.81,1.43,5.78-.24,1.99-1.04,3.8-2.14,5.35-1.12,1.52-2.46,2.94-4.49,3.53l-.31-.93c1.21-.88,2.16-2.38,2.94-3.77.77-1.43,1.34-2.96,1.53-4.47.21-1.52-.05-2.99-.73-4.35-.73-1.36-1.98-2.44-3.29-3.56l.46-.86Z"/>
      </g>
      <path class="st15" d="M353.46,1045.05l-89.85-24.49h0c1.82-6.66,8.69-10.59,15.35-8.77l65.73,17.92c6.66,1.82,10.59,8.69,8.77,15.35h0Z"/>
      <g>
        <path class="st11" d="M318.77,1536.08s18.37,39.08,71.22,26.52l-25.49-33.81-45.73,7.29Z"/>
        <polygon class="st0" points="336.7 1531.27 317.89 1573.59 338.42 1605.96 363.82 1585.3 375.05 1538.73 336.7 1531.27"/>
        <g>
          <path class="st11" d="M317.89,1573.59l45.93,11.72,26.05,64.47c2.44,6.03-3.83,11.9-9.69,9.07l-81.49-39.4c-5.9-2.85-8.44-9.89-5.73-15.86l.72-1.58c5.26-11.55,13.64-21.39,24.21-28.42h0Z"/>
          <path class="st11" d="M317.89,1573.59l45.93,11.72,26.05,64.47c2.44,6.03-3.83,11.9-9.69,9.07l-81.49-39.4c-5.9-2.85-8.44-9.89-5.73-15.86l.72-1.58c5.26-11.55,13.64-21.39,24.21-28.42h0Z"/>
        </g>
        <g>
          <rect class="st8" x="360.54" y="1609.35" width="13.05" height="2.5" transform="translate(-740.48 385) rotate(-29.26)"/>
          <rect class="st8" x="366.23" y="1623.62" width="13.05" height="2.5" transform="translate(-747.94 390.69) rotate(-29.32)"/>
        </g>
        <path class="st6" d="M379.93,1099.79c-8.89,20.91-20.95,53.07-.73,91.69,8.23,15.72,10.99,33.72,7.02,51.01l-67.45,293.58,71.22,26.52,145.74-425.14-155.79-37.67Z"/>
      </g>
      <g>
        <path class="st15" d="M570.47,888.38c14.39,41.32,14.8,111.86-12.55,186.28l-42.18,12.03,16.95-137.85,37.77-60.46Z"/>
        <path class="st15" d="M524.17,852.9l11.55-25.57s32.73,22.81,49.92,50l-20.05,37.73-41.43-62.16Z"/>
      </g>
      <path class="st11" d="M532.68,1069.21c-112.05-3.6-170.7,59.2-170.27,56.75,18.02-61.15,35-106.88,50.2-141,27.55-61.93,49.2-85.83,60.45-94.82,5.5-4.43,8.52-5.28,8.52-5.28l51.02-42.72c4.43,2.27,8.63,5.52,12.43,9.1,14.38,13.5,22.6,32.15,24.55,51.75,7.65,76.73-36.9,166.23-36.9,166.23Z"/>
      <path class="st6" d="M500.33,892.54c-16.35,8.67-44.76,54.02-87.73,92.42,27.55-61.93,49.2-85.83,60.45-94.82l27.27,2.41Z"/>
      <g>
        <path class="st0" d="M316.11,987.72l-18.03,25.62s-2.23,10.47-7.06,14.63c0,0,2.16,10.73,10.6,14.49,9.63,4.3,21.51,4.07,29.22-6.93,7.7-11,8.71-43.6,8.71-43.6l-23.43-4.2Z"/>
        <path class="st15" d="M303.67,992.96c0,1.67-3.33,10.83-3.33,10.83l39.2,5.42v-17.29l-35.87,1.04Z"/>
        <path class="st11" d="M532.62,842.13s-74.64-11.19-135.28,20.23c-8.55,4.43-16.35,10.19-23.27,16.89-29.27,28.36-55.42,56.29-75.21,115.6l46.61,7.62,46.99-69.44c4.05-5.94,10.19-10.14,17.2-11.74,24.88-5.68,84.54-19.63,93.9-25.09l29.06-54.06Z"/>
      </g>
      <g>
        <path class="st11" d="M598.03,1288.55s28.07,37.4,74.56,18.62l-31.01-32.95-43.55,14.34Z"/>
        <polygon class="st0" points="615.22 1278.73 596.4 1321.04 616.94 1353.42 642.33 1332.76 653.56 1286.19 615.22 1278.73"/>
        <path class="st11" d="M596.4,1321.04l45.93,11.72,26.05,64.47c2.44,6.03-3.83,11.9-9.69,9.07l-81.49-39.4c-5.9-2.85-8.44-9.89-5.73-15.86l.72-1.58c5.26-11.55,13.64-21.39,24.21-28.42h0Z"/>
        <rect class="st8" x="638.88" y="1355.65" width="13.05" height="2.5" transform="translate(-580.94 488.68) rotate(-29.26)"/>
        <rect class="st8" x="644.56" y="1369.93" width="13.05" height="2.5" transform="translate(-588.05 494.49) rotate(-29.32)"/>
        <path class="st6" d="M379.93,1099.79c15.31-10.6,112.98-36.21,174.98-34.33,68.91,2.08,124.21,9.91,146.69,60.37,22.48,50.46-29.01,181.33-29.01,181.33l-74.56-18.62,17.97-121.32s-94.42,11.9-139.42,12.4l-96.65-79.83Z"/>
        <path class="st15" d="M535.72,1176.41c-7.68.04-15.05,1.96-22.65,3.52-7.6,1.56-15.43,2.17-23.18,2.08-7.76-.16-15.47-.89-23.13-1.9-3.82-.55-7.62-1.22-11.43-1.83-3.78-.78-7.57-1.51-11.33-2.33l.18-.96c3.82.47,7.62,1.05,11.43,1.57,3.81.46,7.62.99,11.43,1.39,7.62.83,15.26,1.46,22.89,1.59,7.64.22,15.23-.43,22.77-1.68,3.78-.61,7.55-1.4,11.4-1.93,3.86-.49,7.77-.63,11.64-.49l-.02.98Z"/>
      </g>
      <path class="st8" d="M393.33,1103.84l-23.68,86.88-2.77,10.12c-2.93,10.7-13.97,17.02-24.7,14.1l-155.07-42.27c-10.73-2.93-17.05-13.98-14.13-24.7l15.6-57.17,10.85-39.8c2.92-10.72,13.97-17.05,24.67-14.12l155.1,42.27c10.73,2.93,17.02,13.98,14.12,24.7Z"/>
      <path class="st15" d="M249.81,1071.23l13.76-50.47c1.82-6.66,8.69-10.59,15.35-8.77h0s-17.05,62.53-17.05,62.53l-12.06-3.29Z"/>
      <path class="st15" d="M328.46,1089.27l16.24-59.57h0c6.66,1.82,10.59,8.69,8.77,15.35l-12.95,47.51-12.06-3.29Z"/>
      <circle class="st6" cx="254.95" cy="1076.13" r="10.76"/>
      <circle class="st6" cx="333.76" cy="1093.59" r="10.76"/>
      <path class="st5" d="M369.66,1190.71l-2.77,10.12c-2.93,10.7-13.97,17.02-24.7,14.1l-155.07-42.27c-10.73-2.93-17.05-13.98-14.13-24.7l20.71-75.9c-5.23,71.8,106.64,118.4,175.97,118.65Z"/>
    </g>
    <g>
      <polygon class="st7" points="1720.63 1212.63 1720.63 1318.79 555.97 1762.35 282.42 1762.35 282.42 1660.25 553.52 1660.25 553.82 1604 554.15 1547.6 826.47 1547.6 826.47 1434.98 1097.57 1434.98 1097.57 1325.18 1368.7 1325.18 1368.7 1212.53 1720.63 1212.63"/>
      <path class="st8" d="M1094.64,1437.9h-267.38c-2.99,0-5.44-2.45-5.44-5.44h0c0-2.99,2.45-5.44,5.44-5.44h267.38c2.99,0,5.44,2.45,5.44,5.44h0c0,2.99-2.45,5.44-5.44,5.44Z"/>
      <path class="st8" d="M1366.31,1329.56h-267.38c-2.99,0-5.44-2.45-5.44-5.44h0c0-2.99,2.45-5.44,5.44-5.44h267.38c2.99,0,5.44,2.45,5.44,5.44h0c0,2.99-2.45,5.44-5.44,5.44Z"/>
      <path class="st8" d="M1720.8,1215.47h-352.6c-2.99,0-5.44-2.45-5.44-5.44h0c0-2.99,2.45-5.44,5.44-5.44h352.6c2.99,0,5.44,2.45,5.44,5.44h0c0,2.99-2.45,5.44-5.44,5.44Z"/>
      <path class="st8" d="M823.31,1549.89h-267.38c-2.99,0-5.44-2.45-5.44-5.44h0c0-2.99,2.45-5.44,5.44-5.44h267.38c2.99,0,5.44,2.45,5.44,5.44h0c0,2.99-2.45,5.44-5.44,5.44Z"/>
      <path class="st8" d="M550.94,1662.52h-267.38c-2.99,0-5.44-2.45-5.44-5.44h0c0-2.99,2.45-5.44,5.44-5.44h267.38c2.99,0,5.44,2.45,5.44,5.44h0c0,2.99-2.45,5.44-5.44,5.44Z"/>
    </g>
    <g>
      <g>
        <path class="st4" d="M849.5,1063.96l-1.49-16.81,26.8-2.37c139.17-12.31,256.23-106.36,298.24-239.61l34.29-108.76,16.09,5.07-34.29,108.76c-44.07,139.77-166.87,238.42-312.84,251.34l-26.8,2.37Z"/>
        <polygon class="st4" points="1215.82 799.59 1208.49 719.53 1154.08 782.59 1141.3 771.57 1221.67 678.44 1232.62 798.05 1215.82 799.59"/>
      </g>
      <path class="st4" d="M777.06,600.71c0,2.88-1.08,5.65-3.12,8.25h-305.71c-1.17-2.6-1.79-5.37-1.79-8.25,0-15.34,17.82-27.77,39.81-27.77,6.97,0,13.52,1.26,19.21,3.46,3-21.78,32.85-38.89,69.23-38.89s68.75,18.58,69.49,41.65c11.9-3.87,27.1-6.22,43.65-6.22,38.24,0,69.23,12.43,69.23,27.77Z"/>
      <path class="st4" d="M1309.87,395.08c0,3.44-1.3,6.76-3.73,9.87h-365.88c-1.4-3.11-2.14-6.43-2.14-9.87,0-18.36,21.33-33.24,47.64-33.24,8.35,0,16.18,1.5,23,4.14,3.59-26.07,39.32-46.55,82.86-46.55s82.28,22.23,83.17,49.85c14.24-4.64,32.43-7.44,52.24-7.44,45.77,0,82.86,14.88,82.86,33.24Z"/>
    </g>
  </g>
</svg>